<?xml version="1.0" encoding="utf-8"?>
<!-- Generator: Adobe Illustrator 16.0.0, SVG Export Plug-In . SVG Version: 6.00 Build 0)  -->
<!DOCTYPE svg PUBLIC "-//W3C//DTD SVG 1.1//EN" "http://www.w3.org/Graphics/SVG/1.1/DTD/svg11.dtd">
<svg version="1.1" id="Layer_1" xmlns="http://www.w3.org/2000/svg" xmlns:xlink="http://www.w3.org/1999/xlink" x="0px" y="0px"
	 width="960px" height="560px" viewBox="0 0 960 560" enable-background="new 0 0 960 560" xml:space="preserve">
<g>
	<g>
		<path fill-rule="evenodd" clip-rule="evenodd" fill="#FEFEFE" d="M488.333-12.17c96.998,0,193.996,0.002,290.994-0.029
			c1.207,0,1.536,0.219,1.536,1.497c-0.035,193.996-0.035,387.992,0.006,581.988c0.001,1.39-0.343,1.577-1.631,1.577
			c-193.941-0.035-387.882-0.035-581.823,0.001c-1.302,0-1.624-0.21-1.624-1.585c0.041-193.94,0.041-387.882-0.003-581.822
			c0-1.461,0.383-1.659,1.716-1.659C294.447-12.167,391.391-12.17,488.333-12.17z M519.446,106.864
			c0.859-0.666,1.485-1.558,2.335-2.254c5.523-4.526,9.437-10.158,11.812-16.932c1.894-5.401,3.172-10.885,3.818-16.58
			c0.602-5.303,0.743-10.555-0.067-15.827c-0.125-0.808,0.201-1.286,1.003-1.372c2.139-0.228,4.276-0.52,6.423-0.617
			c3.476-0.158,6.945-0.058,10.431,0.166c5.72,0.367,11.371,1.214,16.911,2.502c5.855,1.362,11.658,3.063,17.187,5.534
			c4.955,2.215,9.737,4.682,13.654,8.568c0.621,0.616,0.771,1.684,1.785,1.978c0.054-0.185,0.14-0.317,0.104-0.383
			c-2.717-4.975-3.754-10.441-4.622-15.947c-0.365-2.309-0.622-2.702-2.511-2.805c-8.283-0.45-16.474-1.758-24.706-2.668
			c-9.814-1.084-19.628-2.208-29.516-2.39c-2.277-0.042-4.556-0.048-6.833-0.017c-0.808,0.011-1.464-0.113-2.021-0.776
			c-1.079-1.284-2.205-2.531-3.346-3.762c-5.441-5.873-11.502-10.987-18.401-15.091c-4.827-2.872-9.862-5.304-15.149-7.18
			c-3.003-1.065-6.115-1.794-9.266-2.328c-4.536-0.768-9.12-0.881-13.701-1.073c-4.016-0.168-7.999,0.208-11.973,0.662
			c-3.588,0.409-7.163,1.103-10.735,1.416c-3.37,0.296-6.625,1.052-9.847,1.793c-3.829,0.881-7.586,2.211-11.294,3.624
			c-3.553,1.353-7.03,2.881-10.397,4.597c-3.108,1.583-6.157,3.333-9.003,5.396c-3.766,2.729-7.898,4.921-11.531,7.852
			c-2.892,2.333-5.316,5.133-7.929,7.747c-4.872,4.874-10.311,9.088-15.789,13.246c-2.108,1.601-4.197,3.287-6.508,4.543
			c-3.236,1.76-6.651,3.213-9.94,4.867c-7.672,3.857-15.834,5.866-24.22,7.186c-3.919,0.617-7.842,1.196-11.792,1.638
			c-4.541,0.508-9.088,0.871-13.64,1.208c-5.088,0.377-10.099-0.613-15.113-1.187c-4.927-0.564-9.788-1.691-14.759-2.028
			c-0.674-0.045-1.095,0.037-1.568,0.44c2.251,2.172,3.511,4.909,5.188,7.345c2.947,4.281,5.9,8.559,9.318,12.471
			c4.467,5.113,9.499,9.693,14.199,14.588c2.296,2.391,4.729,4.655,7.479,6.5c7.02,4.71,14.629,8.345,22.243,11.966
			c8.723,4.147,17.888,6.96,27.285,9.066c2.566,0.575,5.161,1.021,7.743,1.525c-1.047,0.432-2.063,0.987-3.149,1.264
			c-1.479,0.376-1.61,1.501-1.726,2.65c-0.113,1.125,0.506,1.965,1.481,2.349c1.624,0.638,3.242,1.295,5.019,1.516
			c4.78,0.593,9.122-0.745,13.325-2.813c1.997-0.982,2.48-0.778,3.434,1.132c2.645,5.293,5.332,10.566,8.014,15.842
			c2.859,5.624,5.601,11.292,7.084,17.478c0.267,1.11,0.416,2.268,1.044,3.284c2.858,4.621,5.34,9.411,7.281,14.516
			c2.522,6.631,4.506,13.397,6.164,20.284c0.473,1.964,0.757,3.978,1.512,5.896c0.955,2.426,2.458,4.525,3.671,6.794
			c2.012,3.763,4.56,7.113,8.161,9.533c1.958,1.315,3.988,2.528,5.889,3.919c8.357,6.115,17.384,11.05,26.751,15.409
			c2.601,1.21,2.571,1.264,2.135,4.239c-0.063,0.433-0.047,0.877-0.071,1.316c-0.147,2.687,0.695,5.234,1.287,7.783
			c0.554,2.385,1.377,4.732,2.374,7.008c1.697,3.874,4.124,7.246,6.962,10.319c2.994,3.24,6.295,6.144,10.514,7.717
			c2.15,0.802,3.151,2.09,2.894,4.335c-0.125,1.094,0.045,2.045,0.653,2.974c0.539,0.824,0.882,1.779,1.44,2.588
			c1.013,1.465,0.228,2.272-1.01,2.797c-2.749,1.164-5.188,2.83-7.67,4.446c-7.49,4.879-15,9.728-22.517,14.565
			c-3.969,2.555-7.572,5.638-11.677,7.996c-1.005,0.577-1.731,1.482-2.395,2.456c-1.339,1.961-1.758,4.238-2.399,6.445
			c-1.59,5.477-3.299,10.923-4.735,16.439c-1.183,4.545-3.264,8.083-7.87,9.992c-3.889,1.613-7.72,3.377-11.655,4.886
			c-1.069,0.41-1.906,1.137-1.981,2.208c-0.083,1.171,0.757,2.022,1.826,2.505c0.44,0.198,0.949,0.318,1.432,0.338
			c2.253,0.093,4.508,0.202,6.761,0.184c2.949-0.024,5.729-0.646,7.621-3.175c2.116-2.827,3.699-5.942,4.842-9.298
			c1.502-4.409,3.139-8.771,4.553-13.213c1.33-4.18,2.616-8.371,3.896-12.565c0.499-1.633,0.704-3.496,2.316-4.592
			c7.441-5.056,14.939-10.03,22.313-15.182c5.933-4.145,12.565-7.228,18.063-12.032c1.065-0.932,2.499-0.586,3.286,0.638
			c0.711,1.104,1.299,2.291,1.894,3.466c1.65,3.26,2.668,6.592,1.586,10.314c-0.338,1.164-0.885,2.26-1.126,3.432
			c-1.453,7.055-2.732,14.146-2.588,21.384c0.055,2.723-0.332,5.238-1.76,7.569c-0.372,0.606-0.709,1.234-1.062,1.854
			c-2.597,4.564-5.108,9.18-7.816,13.678c-2.151,3.571-4.112,7.214-5.781,11.038c-1.907,4.371-3.763,8.766-5.85,13.062
			c-1.938,3.988-4.15,7.845-5.784,11.985c-1.585,4.018-3.292,7.988-4.917,11.991c-0.681,1.676-0.357,2.551,1.233,3.453
			c0.481,0.272,0.658,0.694,0.849,1.158c2.028,4.908,3.046,10.118,3.811,15.294c0.783,5.294,1.098,10.689,1.171,16.075
			c0.047,3.458,0.102,6.933,0.457,10.368c0.674,6.499,1.504,12.983,2.385,19.458c0.884,6.499,0.58,13.185,3.022,19.447
			c0.389,0.997-0.272,1.46-1.197,1.442c-0.983-0.019-1.964-0.228-2.948-0.236c-4.678-0.042-9.09,1.391-13.543,2.555
			c-2.705,0.706-5.369,1.565-8.053,2.354c-0.888,0.261-1.463,0.767-1.368,1.773c0.089,0.941,0.595,1.408,1.553,1.627
			c3.982,0.907,8.044,1.077,12.09,1.385c5.426,0.412,10.543-1.047,15.618-2.721c0.976-0.322,1.531-0.966,1.396-1.961
			c-0.475-3.481-0.806-7.004-1.592-10.419c-1.112-4.833-1.935-9.704-2.491-14.616c-0.944-8.341-1.741-16.701-1.748-25.109
			c-0.004-4.564-0.137-9.132-0.64-13.658c-0.909-8.195-2.636-16.239-4.722-24.228c-0.836-3.203-0.849-6.696,0.162-9.959
			c1.623-5.236,4.948-9.631,7.603-14.337c1.797-3.185,3.968-6.184,5.362-9.581c2.289-5.575,4.754-11.068,7.355-16.499
			c2.08-4.343,4.309-8.615,6.463-12.923c0.331-0.66,0.773-0.719,1.325-0.312c0.513,0.379,0.793,0.912,0.882,1.533
			c0.344,2.396,0.737,4.785,1.001,7.189c0.397,3.627,1.29,7.142,2.514,10.552c1.9,5.295,4.789,10.059,8.025,14.66
			c4.537,6.45,9.856,12.071,16.312,16.614c4.047,2.849,8.365,5.233,12.731,7.538c5.232,2.762,10.52,5.376,16.305,6.869
			c2.336,0.603,4.771,0.803,7.022,1.753c1.714,0.723,3.427,1.463,5.186,2.06c6.213,2.109,12.687,3.085,19.119,4.168
			c6.065,1.021,12.126,2.143,18.29,2.482c1.297,0.072,2.009,0.819,2.37,2.126c1.596,5.772,1.564,11.729,1.992,17.62
			c0.369,5.096,0.486,10.244,1.426,15.241c0.813,4.333,1.271,8.688,1.825,13.037c0.537,4.208,1.221,8.329,3.048,12.223
			c1.134,2.415,2.412,4.893,2.074,7.686c-0.385,3.178,1.597,4.991,3.914,6.037c6.36,2.87,12.967,5.076,20.012,5.603
			c1.475,0.109,2.951,0.35,4.422,0.309c2.281-0.063,3.95-2.235,2.969-3.841c-1.523-2.496-3.42-4.484-6.656-4.792
			c-5.464-0.521-10.904-1.286-16.365-1.835c-1.499-0.15-2.354-0.831-3.105-2.053c-1.663-2.704-2.599-5.678-3.508-8.674
			c-1.565-5.15-2.954-10.333-3.92-15.644c-0.723-3.976-0.489-8.027-1.201-11.964c-1.033-5.711-1.343-11.434-1.404-17.222
			c-0.038-3.651-0.054-7.364-1.03-10.964c-0.433-1.595-0.117-1.825,1.62-1.942c2.242-0.15,4.292,0.871,6.512,0.91
			c4.082,0.073,8.115-0.323,12.141-0.915c1.875-0.274,3.617-0.93,5.24-1.868c5.307-3.069,10.11-6.826,14.382-11.198
			c3.078-3.149,4.981-6.998,5.992-11.352c0.848-3.656,0.813-7.311,0.562-10.972c-0.176-2.564-0.626-5.133-1.196-7.644
			c-0.557-2.455-1.389-4.837-1.827-7.338c-0.721-4.11-1.821-8.105-3.636-11.921c-2.452-5.154-5.229-10.133-7.96-15.131
			c-2.784-5.095-5.299-10.365-8.705-15.093c-8.602-11.938-20.5-19.626-33.57-25.744c-5.7-2.668-11.453-5.227-17.209-7.772
			c-5.455-2.414-10.957-4.72-16.412-7.132c-1.744-0.771-3.946-1.06-5.059-2.598c-1.558-2.153-2.605-4.683-3.811-7.08
			c-0.361-0.719-0.242-1.496,0.692-1.685c1.148-0.232,2.157-0.791,3.241-1.163c6.064-2.085,12.245-3.793,18.231-6.151
			c6.072-2.393,12.004-5.086,17.839-7.956c6.633-3.262,13.112-6.841,19.958-9.652c1.901-0.781,3.802-1.682,6.084-0.517
			c2.522,1.288,5.272,2.14,7.952,3.103c5.73,2.061,11.591,3.738,17.354,5.687c8.945,3.024,18.157,4.74,27.397,6.413
			c0.951,0.171,1.93,0.158,2.701-0.434c3.354-2.573,6.693-5.165,9.973-7.832c1.113-0.906,1.987-2.068,1.95-3.661
			c-0.02-0.802-0.297-1.525-1.127-1.584c-1.852-0.131-3.732-0.407-5.56,0.177c-4.382,1.401-8.151,3.824-11.279,7.161
			c-1.302,1.39-2.65,2.026-4.504,1.588c-1.924-0.456-3.875-0.809-5.78-1.332c-4.925-1.353-9.847-2.726-14.86-3.709
			c-5.197-1.019-10.106-2.879-15.015-4.796c-3.538-1.382-6.888-3.099-10.132-5.049c-0.854-0.514-1.763-0.665-2.68-0.251
			c-1.649,0.743-3.291,1.507-4.908,2.318c-4.508,2.262-8.987,4.581-13.505,6.822c-3.533,1.753-7.237,3.11-10.906,4.544
			c-3.104,1.214-6.184,2.493-9.305,3.66c-4.31,1.612-8.663,3.105-12.919,4.868c-3.743,1.551-7.524,3.014-11.3,4.487
			c-1.203,0.47-2.187,0.38-2.846-1.017c-1.193-2.525-2.536-4.979-3.785-7.479c-0.468-0.937-0.538-1.906,0.101-2.821
			c0.785-1.126,1.642-2.208,2.357-3.376c1.398-2.281,3.705-4.1,4.185-6.825c0.771-4.374,1.155-8.804,0.872-13.271
			c-0.158-2.502-1.222-4.787-1.537-7.243c-0.144-1.116,0.001-2.136,0.988-2.786c4.156-2.739,7.972-6.015,12.659-7.924
			c1.481-0.604,2.711-1.646,3.68-2.966c1.108-1.513,1.158-2.568-0.077-3.985c-2.743-3.144-5.497-6.28-8.322-9.35
			c-2.838-3.083-5.159-6.378-5.795-10.676c-0.305-2.053-0.898-4.075-1.5-6.068c-1.175-3.888-2.383-7.767-3.698-11.608
			c-1.21-3.53-2.321-7.083-3.392-10.658c-1.253-4.19-3.915-7.69-6.519-11.172c-2.233-2.987-5.378-5.187-7.179-8.571
			c-0.713-1.339-0.565-2.113,0.604-2.884c6.641-4.379,13.565-8.268,20.638-11.899c3.897-2.001,7.853-3.88,11.821-5.736
			c1.437-0.671,2.262-0.653,3.188,0.633c4.528,6.294,9.341,12.356,14.763,17.919c2.055,2.109,4.172,4.074,7.18,4.701
			c0.991,0.207,1.873,0.556,2.542,1.389c0.38,0.474,0.862,0.824,1.566,0.382c1.821-1.142,1.93-3.305,0.146-4.458
			c-1.702-1.1-3.398-2.228-5.191-3.164c-5.885-3.071-10.473-7.561-14.25-12.921c-1.712-2.43-2.925-5.153-3.729-8.015
			c-0.617-2.197-1.478-2.7-3.526-1.771c-5.037,2.285-10.023,4.671-14.921,7.248c-7.999,4.21-16.049,8.322-23.894,12.817
			c-0.911,0.522-1.315,0.257-1.854-0.514c-3.364-4.823-6.39-9.853-9.112-15.056c-2.129-4.069-4.574-8.006-5.781-12.501
			c-0.678-2.523-1.928-4.699-3.417-6.85c-1.424-2.057-2.404-4.44-2.622-7.034c-0.054-0.637-0.106-1.246,0.573-1.562
			c0.842-0.392,1.698-0.756,2.566-1.082c4.612-1.73,9.229-3.447,13.849-5.159c0.479-0.178,0.971-0.322,0.998-0.938
			c0.024-0.553-0.29-0.895-0.758-1.17C526.85,108.056,523.378,106.681,519.446,106.864z"/>
		<path fill-rule="evenodd" clip-rule="evenodd" fill="#030303" d="M519.446,106.864c3.932-0.183,7.403,1.192,10.712,3.14
			c0.468,0.275,0.782,0.617,0.758,1.17c-0.027,0.616-0.52,0.76-0.998,0.938c-4.619,1.712-9.236,3.429-13.849,5.159
			c-0.868,0.326-1.725,0.69-2.566,1.082c-0.68,0.316-0.627,0.925-0.573,1.562c0.218,2.593,1.198,4.977,2.622,7.034
			c1.489,2.151,2.739,4.327,3.417,6.85c1.207,4.496,3.652,8.432,5.781,12.501c2.723,5.204,5.748,10.233,9.112,15.056
			c0.538,0.771,0.942,1.037,1.854,0.514c7.845-4.495,15.895-8.607,23.894-12.817c4.897-2.577,9.884-4.963,14.921-7.248
			c2.049-0.929,2.909-0.426,3.526,1.771c0.805,2.861,2.018,5.585,3.729,8.015c3.777,5.361,8.365,9.851,14.25,12.921
			c1.793,0.936,3.489,2.063,5.191,3.164c1.783,1.153,1.675,3.316-0.146,4.458c-0.704,0.441-1.187,0.091-1.566-0.382
			c-0.669-0.833-1.551-1.182-2.542-1.389c-3.008-0.627-5.125-2.592-7.18-4.701c-5.422-5.563-10.234-11.625-14.763-17.919
			c-0.927-1.287-1.752-1.305-3.188-0.633c-3.969,1.856-7.924,3.735-11.821,5.736c-7.072,3.632-13.997,7.52-20.638,11.899
			c-1.169,0.771-1.316,1.545-0.604,2.884c1.801,3.384,4.945,5.583,7.179,8.571c2.604,3.481,5.266,6.982,6.519,11.172
			c1.07,3.576,2.182,7.128,3.392,10.658c1.315,3.841,2.523,7.721,3.698,11.608c0.602,1.994,1.195,4.016,1.5,6.068
			c0.636,4.298,2.957,7.594,5.795,10.676c2.825,3.07,5.579,6.206,8.322,9.35c1.235,1.417,1.186,2.472,0.077,3.985
			c-0.969,1.321-2.198,2.362-3.68,2.966c-4.688,1.909-8.503,5.185-12.659,7.924c-0.987,0.65-1.132,1.67-0.988,2.786
			c0.315,2.456,1.379,4.741,1.537,7.243c0.283,4.467-0.102,8.898-0.872,13.271c-0.479,2.725-2.786,4.544-4.185,6.825
			c-0.716,1.168-1.572,2.25-2.357,3.376c-0.639,0.915-0.568,1.885-0.101,2.821c1.249,2.499,2.592,4.953,3.785,7.479
			c0.659,1.396,1.643,1.486,2.846,1.017c3.775-1.474,7.557-2.937,11.3-4.487c4.256-1.763,8.609-3.256,12.919-4.868
			c3.121-1.167,6.2-2.446,9.305-3.66c3.669-1.434,7.373-2.791,10.906-4.544c4.518-2.242,8.997-4.56,13.505-6.822
			c1.617-0.811,3.259-1.575,4.908-2.318c0.917-0.414,1.825-0.263,2.68,0.251c3.244,1.95,6.594,3.667,10.132,5.049
			c4.908,1.917,9.817,3.777,15.015,4.796c5.014,0.983,9.936,2.356,14.86,3.709c1.905,0.523,3.856,0.876,5.78,1.332
			c1.854,0.438,3.202-0.198,4.504-1.588c3.128-3.337,6.897-5.76,11.279-7.161c1.827-0.583,3.708-0.308,5.56-0.177
			c0.83,0.059,1.107,0.782,1.127,1.584c0.037,1.592-0.837,2.755-1.95,3.661c-3.279,2.667-6.619,5.259-9.973,7.832
			c-0.771,0.592-1.75,0.604-2.701,0.434c-9.24-1.673-18.452-3.389-27.397-6.413c-5.764-1.948-11.624-3.626-17.354-5.687
			c-2.68-0.963-5.43-1.815-7.952-3.103c-2.282-1.165-4.183-0.264-6.084,0.517c-6.846,2.811-13.325,6.391-19.958,9.652
			c-5.835,2.87-11.767,5.563-17.839,7.956c-5.986,2.358-12.167,4.066-18.231,6.151c-1.084,0.372-2.093,0.931-3.241,1.163
			c-0.935,0.188-1.054,0.966-0.692,1.685c1.205,2.397,2.253,4.927,3.811,7.08c1.112,1.538,3.314,1.826,5.059,2.598
			c5.455,2.412,10.957,4.718,16.412,7.132c5.756,2.546,11.509,5.104,17.209,7.772c13.07,6.118,24.969,13.807,33.57,25.744
			c3.406,4.728,5.921,9.998,8.705,15.093c2.73,4.998,5.508,9.977,7.96,15.131c1.814,3.815,2.915,7.811,3.636,11.921
			c0.438,2.501,1.271,4.883,1.827,7.338c0.57,2.511,1.021,5.079,1.196,7.644c0.251,3.661,0.286,7.315-0.562,10.972
			c-1.011,4.354-2.914,8.202-5.992,11.352c-4.271,4.372-9.075,8.129-14.382,11.198c-1.623,0.938-3.365,1.594-5.24,1.868
			c-4.025,0.592-8.059,0.988-12.141,0.915c-2.22-0.039-4.27-1.061-6.512-0.91c-1.737,0.117-2.053,0.348-1.62,1.942
			c0.977,3.6,0.992,7.313,1.03,10.964c0.062,5.788,0.371,11.511,1.404,17.222c0.712,3.937,0.479,7.988,1.201,11.964
			c0.966,5.311,2.354,10.493,3.92,15.644c0.909,2.996,1.845,5.97,3.508,8.674c0.751,1.222,1.606,1.902,3.105,2.053
			c5.461,0.549,10.901,1.314,16.365,1.835c3.236,0.308,5.133,2.296,6.656,4.792c0.981,1.605-0.688,3.777-2.969,3.841
			c-1.471,0.041-2.947-0.199-4.422-0.309c-7.045-0.526-13.651-2.732-20.012-5.603c-2.317-1.046-4.299-2.859-3.914-6.037
			c0.338-2.793-0.94-5.271-2.074-7.686c-1.827-3.894-2.511-8.015-3.048-12.223c-0.555-4.35-1.012-8.704-1.825-13.037
			c-0.939-4.997-1.057-10.146-1.426-15.241c-0.428-5.892-0.396-11.848-1.992-17.62c-0.361-1.307-1.073-2.054-2.37-2.126
			c-6.164-0.34-12.225-1.462-18.29-2.482c-6.433-1.083-12.906-2.059-19.119-4.168c-1.759-0.597-3.472-1.337-5.186-2.06
			c-2.251-0.95-4.687-1.15-7.022-1.753c-5.785-1.493-11.072-4.107-16.305-6.869c-4.366-2.305-8.685-4.689-12.731-7.538
			c-6.455-4.543-11.774-10.164-16.312-16.614c-3.236-4.602-6.125-9.365-8.025-14.66c-1.224-3.41-2.116-6.925-2.514-10.552
			c-0.264-2.404-0.657-4.794-1.001-7.189c-0.089-0.621-0.369-1.154-0.882-1.533c-0.552-0.407-0.994-0.349-1.325,0.312
			c-2.154,4.308-4.383,8.58-6.463,12.923c-2.602,5.431-5.066,10.924-7.355,16.499c-1.395,3.397-3.565,6.396-5.362,9.581
			c-2.655,4.706-5.98,9.101-7.603,14.337c-1.011,3.263-0.999,6.756-0.162,9.959c2.086,7.988,3.813,16.032,4.722,24.228
			c0.502,4.526,0.636,9.094,0.64,13.658c0.007,8.408,0.804,16.769,1.748,25.109c0.556,4.912,1.379,9.783,2.491,14.616
			c0.786,3.415,1.117,6.938,1.592,10.419c0.135,0.995-0.421,1.639-1.396,1.961c-5.074,1.674-10.191,3.133-15.618,2.721
			c-4.045-0.308-8.107-0.478-12.09-1.385c-0.958-0.219-1.464-0.686-1.553-1.627c-0.095-1.007,0.48-1.513,1.368-1.773
			c2.684-0.788,5.348-1.647,8.053-2.354c4.453-1.164,8.865-2.597,13.543-2.555c0.983,0.009,1.964,0.218,2.948,0.236
			c0.925,0.018,1.586-0.445,1.197-1.442c-2.442-6.263-2.138-12.948-3.022-19.447c-0.881-6.475-1.711-12.959-2.385-19.458
			c-0.355-3.436-0.41-6.91-0.457-10.368c-0.073-5.386-0.389-10.781-1.171-16.075c-0.765-5.176-1.783-10.386-3.811-15.294
			c-0.191-0.464-0.368-0.886-0.849-1.158c-1.59-0.902-1.915-1.777-1.233-3.453c1.626-4.003,3.332-7.974,4.917-11.991
			c1.634-4.141,3.846-7.997,5.784-11.985c2.087-4.296,3.943-8.69,5.85-13.062c1.669-3.824,3.63-7.467,5.781-11.038
			c2.708-4.498,5.22-9.113,7.816-13.678c0.353-0.619,0.689-1.247,1.062-1.854c1.428-2.331,1.814-4.847,1.76-7.569
			c-0.145-7.237,1.135-14.329,2.588-21.384c0.241-1.172,0.788-2.268,1.126-3.432c1.082-3.723,0.064-7.055-1.586-10.314
			c-0.595-1.175-1.183-2.361-1.894-3.466c-0.787-1.224-2.221-1.569-3.286-0.638c-5.497,4.805-12.13,7.888-18.063,12.032
			c-7.374,5.151-14.873,10.126-22.313,15.182c-1.612,1.096-1.817,2.959-2.316,4.592c-1.281,4.194-2.566,8.386-3.896,12.565
			c-1.414,4.442-3.051,8.804-4.553,13.213c-1.143,3.355-2.727,6.471-4.842,9.298c-1.893,2.529-4.672,3.15-7.621,3.175
			c-2.253,0.019-4.508-0.091-6.761-0.184c-0.483-0.02-0.992-0.14-1.432-0.338c-1.068-0.482-1.909-1.334-1.826-2.505
			c0.076-1.071,0.913-1.798,1.981-2.208c3.936-1.509,7.766-3.272,11.655-4.886c4.605-1.909,6.687-5.447,7.87-9.992
			c1.436-5.517,3.145-10.963,4.735-16.439c0.641-2.207,1.06-4.484,2.399-6.445c0.664-0.974,1.389-1.879,2.395-2.456
			c4.105-2.358,7.708-5.441,11.677-7.996c7.517-4.838,15.027-9.687,22.517-14.565c2.482-1.616,4.921-3.282,7.67-4.446
			c1.237-0.524,2.022-1.332,1.01-2.797c-0.559-0.809-0.901-1.764-1.44-2.588c-0.608-0.929-0.778-1.88-0.653-2.974
			c0.258-2.245-0.743-3.533-2.894-4.335c-4.219-1.573-7.521-4.477-10.514-7.717c-2.838-3.073-5.265-6.445-6.962-10.319
			c-0.997-2.275-1.82-4.623-2.374-7.008c-0.592-2.548-1.435-5.096-1.287-7.783c0.024-0.438,0.007-0.883,0.071-1.316
			c0.436-2.975,0.466-3.028-2.135-4.239c-9.367-4.358-18.394-9.293-26.751-15.409c-1.901-1.392-3.932-2.604-5.889-3.919
			c-3.601-2.42-6.149-5.77-8.161-9.533c-1.212-2.269-2.716-4.368-3.671-6.794c-0.755-1.918-1.039-3.932-1.512-5.896
			c-1.658-6.887-3.642-13.653-6.164-20.284c-1.941-5.105-4.423-9.895-7.281-14.516c-0.628-1.016-0.778-2.174-1.044-3.284
			c-1.484-6.186-4.226-11.854-7.084-17.478c-2.682-5.276-5.369-10.548-8.014-15.842c-0.954-1.91-1.437-2.114-3.434-1.132
			c-4.203,2.067-8.544,3.406-13.325,2.813c-1.777-0.22-3.395-0.877-5.019-1.516c-0.975-0.383-1.594-1.223-1.481-2.349
			c0.115-1.149,0.247-2.274,1.726-2.65c1.086-0.277,2.102-0.833,3.149-1.264c0.575,0.168,1.142,0.429,1.729,0.491
			c6.148,0.648,12.266,1.628,18.461,1.789c0.079,0.431,0.069,0.904,0.252,1.284c1.568,3.256,3.208,6.477,4.745,9.747
			c0.644,1.371,2.035,2.226,2.514,3.631c1.453,4.26,3.382,8.306,5.336,12.344c2.313,4.778,4.563,9.589,6.963,14.323
			c2.922,5.761,5.006,11.81,6.499,18.071c1.5,6.288,2.593,12.67,5.229,18.659c3.023,6.869,6.841,12.942,13.679,16.728
			c4.453,2.465,8.758,5.218,13.001,8.036c5.977,3.968,11.588,8.512,18.323,11.25c0.759,0.309,1.516,0.741,2.071-0.042
			c1.028-1.455,2.394-2.572,3.572-3.872c0.929-1.026,0.582-1.736-0.429-2.399c-0.668-0.438-1.372-0.258-2.079-0.247
			c-3.63,0.06-6.948-0.819-9.791-3.204c-2.631-2.208-4.677-4.947-6.877-7.538c-2.535-2.986-4.4-6.261-5.288-10.232
			c-1.487-6.652-0.468-12.671,2.982-18.479c3.835-6.456,7.625-12.948,11.158-19.572c2.633-4.937,5.575-9.565,9.687-13.401
			c3.426-3.195,6.49-6.702,9.105-10.604c1.847-2.754,1.687-4.315-0.965-6.26c-1.814-1.33-3.688-2.58-5.57-3.813
			c-6.741-4.42-12.894-9.695-19.932-13.688c-0.962-0.545-1.657-0.698-2.444,0.2c-0.429,0.489-1.044,0.808-1.509,1.271
			c-6.005,5.978-12.377,11.517-19.311,16.407c-2.165,1.526-4.498,2.241-7.116,2.02c-0.718-0.061-1.617-0.243-1.662-1.06
			c-0.048-0.883,0.741-1.324,1.596-1.302c3.245,0.085,5.846-1.454,8.153-3.438c5.745-4.943,11.326-10.071,16.702-15.419
			c0.515-0.513,0.969-1.048,1.202-1.745c1.154-3.447,4.14-4.08,6.531-1.38c0.363,0.411,0.688,0.856,1.046,1.271
			c1.467,1.699,2.87,3.418,5.025,4.392c2.401,1.083,4.559,2.589,6.618,4.264c4.302,3.498,8.834,6.69,13.57,9.579
			c1.538,0.938,3.101,1.881,4.757,2.569c2.795,1.161,5.512,0.114,8.199-0.652c3.427-0.977,6.827-2.063,10.358-2.612
			c5.003-0.78,10.055-0.869,15.103-1.003c0.437-0.012,0.923,0.081,1.196-0.363c0.322-0.52-0.05-0.899-0.306-1.332
			c-1.339-2.263-2.679-4.546-3.53-7.036c-1.756-5.133-3.879-10.121-5.818-15.181c-1.708-4.458-3.452-8.917-4.615-13.541
			c-0.608-2.421-1.755-4.058-3.976-5.029c1.286-0.452,2.11-1.536,3.116-2.351C512.888,112.813,516.351,110.046,519.446,106.864z
			 M547.387,235.834c-0.014,0.68,0.088,1.339,0.613,1.818c2.457,2.24,4.601,4.711,5.917,7.814c0.319,0.752,0.938,0.907,1.64,0.615
			c1.059-0.442,2.123-0.889,3.134-1.43c3.692-1.978,6.802-4.817,10.328-7.044c0.763-0.481,1.058-1.137,0.411-1.928
			c-2.675-3.271-5.365-6.529-8.04-9.8c-0.756-0.924-1.454-0.812-2.167,0.041c-0.352,0.421-0.716,0.832-1.089,1.235
			c-2.337,2.521-5.567,3.644-8.425,5.347C548.406,233.278,547.428,234.211,547.387,235.834z"/>
		<path fill-rule="evenodd" clip-rule="evenodd" fill="#1AA21D" d="M519.446,106.864c-3.096,3.183-6.559,5.949-9.999,8.735
			c-1.006,0.815-1.83,1.899-3.115,2.351c-3.209,1.702-6.257,3.688-9.379,5.533c-4.863,2.875-9.962,5.234-15.071,7.568
			c-4.254,1.943-8.785,3.199-13.209,4.718c-7.479,2.567-14.937,5.15-22.634,7.016c-4.36,1.057-8.756,1.969-13.169,2.68
			c-4.331,0.697-8.751,0.866-13.138,1.178c-4.274,0.304-8.565,0.155-12.844,0.195c-4.832,0.045-9.664-0.558-14.511-0.485
			c-6.195-0.161-12.313-1.14-18.461-1.789c-0.587-0.062-1.154-0.322-1.729-0.491c-2.581-0.505-5.176-0.95-7.742-1.525
			c-9.397-2.106-18.562-4.919-27.285-9.066c-7.614-3.621-15.224-7.256-22.243-11.966c-2.75-1.845-5.183-4.11-7.479-6.5
			c-4.701-4.895-9.732-9.475-14.199-14.588c-3.418-3.912-6.371-8.19-9.318-12.471c-1.677-2.436-2.937-5.173-5.188-7.345
			c0.473-0.403,0.895-0.485,1.568-0.44c4.972,0.337,9.832,1.464,14.759,2.028c5.014,0.574,10.025,1.563,15.113,1.187
			c4.551-0.337,9.099-0.701,13.64-1.208c3.949-0.442,7.873-1.021,11.792-1.638c8.386-1.32,16.548-3.329,24.22-7.186
			c3.289-1.654,6.705-3.107,9.94-4.867c2.311-1.256,4.4-2.943,6.508-4.543c5.478-4.158,10.917-8.372,15.789-13.246
			c2.613-2.614,5.037-5.413,7.929-7.747c3.633-2.931,7.766-5.123,11.531-7.852c2.846-2.063,5.895-3.813,9.003-5.396
			c3.368-1.716,6.844-3.244,10.397-4.597c3.708-1.412,7.465-2.743,11.294-3.624c3.221-0.741,6.477-1.497,9.847-1.793
			c3.572-0.313,7.147-1.007,10.735-1.416c3.974-0.454,7.958-0.83,11.973-0.662c4.581,0.192,9.165,0.306,13.701,1.073
			c3.15,0.534,6.263,1.262,9.266,2.328c5.287,1.876,10.322,4.309,15.149,7.18c6.899,4.104,12.96,9.218,18.401,15.091
			c1.141,1.231,2.267,2.478,3.346,3.762c0.558,0.664,1.214,0.788,2.021,0.776c2.277-0.031,4.556-0.025,6.833,0.017
			c9.888,0.181,19.701,1.305,29.516,2.39c8.232,0.91,16.423,2.219,24.706,2.668c1.889,0.103,2.146,0.496,2.511,2.805
			c0.868,5.506,1.905,10.972,4.622,15.947c0.036,0.066-0.05,0.198-0.104,0.383c-1.014-0.294-1.164-1.361-1.785-1.978
			c-3.917-3.887-8.699-6.354-13.654-8.568c-5.528-2.471-11.331-4.172-17.187-5.534c-5.54-1.289-11.191-2.136-16.911-2.502
			c-3.485-0.224-6.955-0.324-10.431-0.166c-2.146,0.098-4.284,0.39-6.423,0.617c-0.802,0.086-1.128,0.564-1.003,1.372
			c0.811,5.272,0.669,10.523,0.067,15.827c-0.646,5.695-1.925,11.178-3.818,16.58c-2.375,6.774-6.288,12.406-11.812,16.932
			C520.932,105.306,520.306,106.198,519.446,106.864z M294.196,91.19c2.062,1.198,4.104,2.432,6.188,3.589
			c6.962,3.863,14.15,7.202,21.907,9.163c4.828,1.221,9.717,2.143,14.602,3.103c4.13,0.812,8.271,1.265,12.456,1.41
			c2.724,0.094,5.454,0.01,8.181,0.039c4.659,0.048,9.318-0.073,13.829-1.329c8.008-2.23,15.786-5.117,23.342-8.598
			c4.114-1.895,8.262-3.78,11.995-6.32c4.403-2.995,8.519-6.412,12.777-9.621c9.506-7.166,19.53-13.504,30.254-18.693
			c5.843-2.827,12.059-4.604,18.328-6.218c5.99-1.541,12.081-2.557,18.19-3.389c6.41-0.872,12.881-1.097,19.356-1.307
			c6.298-0.204,12.59-0.087,18.884-0.216c0.879-0.018,1.828,0.199,2.624-0.062c1.308-0.427,0.183-1.601,0.469-2.444
			c0.56-1.646-0.146-2.449-1.857-2.44c-4.885,0.026-9.766,0.076-14.65,0.288c-4.4,0.19-8.792,0.42-13.183,0.771
			c-4.775,0.381-9.522,0.993-14.282,1.497c-4.826,0.511-9.533,1.43-14.213,2.648c-4.521,1.178-8.924,2.736-13.43,3.971
			c-2.86,0.784-5.76,1.712-8.339,3.241c-3.893,2.308-7.872,4.463-11.759,6.785c-5.968,3.564-11.521,7.661-16.919,11.998
			c-5.661,4.549-11.708,8.533-18.015,12.098c-5.075,2.869-10.269,5.545-15.68,7.749c-11.101,4.521-22.412,7.95-34.643,7.034
			c-3.696-0.277-7.388-0.587-11.058-1.044c-3.327-0.415-6.616-1.154-9.913-1.795c-3.351-0.652-6.738-1.187-10.027-2.079
			c-8.536-2.315-16.251-6.642-24.294-10.164l-0.004-0.102l-0.085,0.045c-0.334-0.115-0.668-0.229-1.002-0.343
			c-0.536-0.67-1.269-0.707-2.299-0.775C292.644,90.592,293.356,90.984,294.196,91.19z"/>
		<path fill-rule="evenodd" clip-rule="evenodd" fill="#FCFCFC" d="M392.375,146.352c4.847-0.073,9.68,0.531,14.511,0.485
			c4.278-0.04,8.57,0.109,12.844-0.195c4.387-0.312,8.808-0.481,13.138-1.178c4.414-0.71,8.809-1.623,13.169-2.68
			c7.697-1.866,15.156-4.448,22.634-7.016c4.425-1.52,8.955-2.775,13.209-4.718c5.109-2.334,10.208-4.693,15.071-7.568
			c3.122-1.845,6.17-3.831,9.379-5.533c2.22,0.971,3.366,2.608,3.975,5.029c1.163,4.624,2.907,9.083,4.615,13.541
			c1.939,5.06,4.063,10.048,5.818,15.181c0.852,2.49,2.191,4.773,3.53,7.036c0.256,0.433,0.628,0.813,0.306,1.332
			c-0.273,0.444-0.76,0.352-1.196,0.363c-5.048,0.134-10.1,0.224-15.103,1.003c-3.531,0.55-6.932,1.635-10.358,2.612
			c-2.688,0.766-5.404,1.813-8.199,0.652c-1.656-0.688-3.219-1.631-4.757-2.569c-4.736-2.889-9.268-6.081-13.57-9.579
			c-2.06-1.675-4.217-3.181-6.618-4.264c-2.156-0.974-3.558-2.693-5.025-4.392c-0.358-0.415-0.683-0.86-1.046-1.271
			c-2.391-2.7-5.376-2.066-6.531,1.38c-0.233,0.696-0.687,1.232-1.202,1.745c-5.375,5.348-10.957,10.476-16.702,15.419
			c-2.307,1.984-4.908,3.523-8.153,3.438c-0.855-0.022-1.645,0.419-1.596,1.302c0.044,0.816,0.943,0.999,1.662,1.06
			c2.619,0.221,4.952-0.494,7.116-2.02c6.934-4.89,13.306-10.429,19.311-16.407c0.465-0.462,1.081-0.782,1.509-1.271
			c0.788-0.897,1.482-0.745,2.444-0.2c7.038,3.993,13.191,9.268,19.932,13.688c1.881,1.233,3.755,2.483,5.57,3.813
			c2.651,1.944,2.812,3.506,0.965,6.26c-2.615,3.902-5.679,7.409-9.105,10.604c-4.112,3.835-7.054,8.464-9.687,13.401
			c-3.532,6.625-7.322,13.117-11.158,19.572c-3.45,5.808-4.469,11.827-2.982,18.479c0.888,3.972,2.753,7.246,5.288,10.232
			c2.2,2.591,4.246,5.33,6.877,7.538c2.842,2.385,6.161,3.264,9.791,3.204c0.707-0.011,1.411-0.191,2.079,0.247
			c1.011,0.663,1.358,1.373,0.429,2.399c-1.178,1.3-2.544,2.417-3.572,3.872c-0.555,0.784-1.312,0.351-2.071,0.042
			c-6.735-2.738-12.346-7.281-18.323-11.25c-4.243-2.817-8.548-5.571-13.001-8.036c-6.837-3.786-10.655-9.858-13.679-16.728
			c-2.636-5.989-3.729-12.371-5.229-18.659c-1.493-6.261-3.577-12.31-6.499-18.071c-2.401-4.733-4.651-9.544-6.963-14.323
			c-1.954-4.038-3.883-8.083-5.336-12.344c-0.479-1.405-1.87-2.26-2.514-3.631c-1.537-3.27-3.177-6.491-4.745-9.747
			C392.444,147.256,392.455,146.783,392.375,146.352z"/>
		<path fill-rule="evenodd" clip-rule="evenodd" fill="#F8F8F8" d="M547.385,235.833c0.043-1.622,1.021-2.555,2.324-3.331
			c2.857-1.704,6.088-2.826,8.425-5.347c0.373-0.403,0.737-0.814,1.089-1.235c0.713-0.853,1.411-0.965,2.167-0.041
			c2.675,3.271,5.365,6.529,8.04,9.8c0.646,0.791,0.352,1.446-0.411,1.928c-3.526,2.227-6.636,5.067-10.328,7.044
			c-1.011,0.541-2.075,0.987-3.134,1.43c-0.701,0.292-1.32,0.138-1.64-0.615c-1.316-3.104-3.46-5.575-5.917-7.814
			C547.475,237.173,547.373,236.514,547.385,235.833z"/>
		<path fill-rule="evenodd" clip-rule="evenodd" fill="#F7FAF7" d="M294.223,90.453c0.334,0.114,0.668,0.229,1.002,0.343
			l0.089,0.056c8.043,3.522,15.759,7.849,24.294,10.164c3.289,0.892,6.676,1.426,10.027,2.079c3.297,0.642,6.586,1.381,9.913,1.795
			c3.67,0.457,7.362,0.767,11.058,1.044c12.231,0.916,23.542-2.513,34.643-7.034c5.411-2.204,10.605-4.88,15.68-7.749
			c6.306-3.564,12.354-7.548,18.015-12.098c5.397-4.337,10.951-8.434,16.919-11.998c3.887-2.322,7.866-4.477,11.759-6.785
			c2.58-1.529,5.479-2.457,8.339-3.241c4.506-1.234,8.91-2.793,13.43-3.971c4.68-1.218,9.388-2.137,14.213-2.648
			c4.76-0.504,9.507-1.116,14.282-1.497c4.391-0.351,8.782-0.581,13.183-0.771c4.885-0.211,9.766-0.261,14.65-0.288
			c1.711-0.009,2.417,0.794,1.857,2.44c-0.286,0.843,0.839,2.017-0.469,2.444c-0.796,0.261-1.745,0.044-2.624,0.062
			c-6.294,0.129-12.586,0.012-18.884,0.216c-6.476,0.21-12.946,0.435-19.356,1.307c-6.109,0.832-12.2,1.848-18.19,3.389
			c-6.27,1.613-12.485,3.391-18.328,6.218c-10.724,5.189-20.748,11.528-30.254,18.693c-4.258,3.209-8.374,6.626-12.777,9.621
			c-3.733,2.54-7.881,4.425-11.995,6.32c-7.557,3.48-15.334,6.368-23.342,8.598c-4.511,1.256-9.17,1.377-13.829,1.329
			c-2.727-0.028-5.457,0.056-8.181-0.039c-4.185-0.145-8.326-0.599-12.456-1.41c-4.885-0.96-9.774-1.882-14.602-3.103
			c-7.757-1.961-14.945-5.3-21.907-9.163c-2.084-1.157-4.126-2.391-6.188-3.589C294.205,90.944,294.214,90.699,294.223,90.453z"/>
		<path fill-rule="evenodd" clip-rule="evenodd" fill="#CCE2CC" d="M294.223,90.453c-0.009,0.246-0.018,0.491-0.026,0.737
			c-0.84-0.206-1.552-0.599-2.273-1.513C292.954,89.747,293.687,89.783,294.223,90.453z"/>
		<polygon fill-rule="evenodd" clip-rule="evenodd" fill="#CCE2CC" points="295.314,90.853 295.225,90.796 295.31,90.751 		"/>
	</g>
</g>
</svg>
