<?xml version="1.0" encoding="utf-8"?>
<!-- Generator: Adobe Illustrator 16.0.0, SVG Export Plug-In . SVG Version: 6.00 Build 0)  -->
<!DOCTYPE svg PUBLIC "-//W3C//DTD SVG 1.1//EN" "http://www.w3.org/Graphics/SVG/1.1/DTD/svg11.dtd">
<svg version="1.1" id="Layer_1" xmlns="http://www.w3.org/2000/svg" xmlns:xlink="http://www.w3.org/1999/xlink" x="0px" y="0px"
	 width="960px" height="560px" viewBox="0 0 960 560" enable-background="new 0 0 960 560" xml:space="preserve">
<g>
	<g>
		<path fill-rule="evenodd" clip-rule="evenodd" fill="#FEFEFE" d="M493.77,555.609c-91.383,0-182.765-0.002-274.148,0.029
			c-1.166,0.001-1.428-0.263-1.428-1.429c0.03-182.765,0.03-365.53,0-548.295c0-1.166,0.262-1.428,1.428-1.428
			c182.869,0.03,365.738,0.03,548.606,0c1.166,0,1.429,0.262,1.429,1.428c-0.03,182.765-0.03,365.53,0,548.295
			c0,1.166-0.263,1.43-1.429,1.429C676.741,555.607,585.256,555.609,493.77,555.609z M652.045,514.581
			c-1.968-0.008-3.938,0.034-5.903-0.046c-0.94-0.038-1.119,0.329-1.09,1.16c0.056,1.552,0.014,3.107,0.017,4.661
			c0.005,2.669,0.931,4.008,3.517,4.772c3.196,0.944,6.448,0.916,9.661,0.102c3.104-0.787,4.239-2.358,4.245-5.573
			c0.001-0.673-0.041-1.35,0.008-2.02c0.153-2.087-0.647-3.72-2.263-5.003c-1.904-1.512-3.777-3.064-5.704-4.546
			c-1.634-1.257-2.217-2.93-2.132-4.901c0.035-0.812,0.385-1.393,1.308-1.418c1.004-0.027,1.189,0.58,1.167,1.419
			c-0.031,1.14,0.033,2.281-0.022,3.418c-0.036,0.744,0.203,0.994,0.959,0.973c1.708-0.05,3.419-0.048,5.127-0.001
			c0.788,0.021,0.965-0.319,0.941-1.021c-0.04-1.189,0.027-2.384-0.021-3.573c-0.096-2.393-0.976-3.568-3.253-4.354
			c-2.669-0.922-5.433-0.81-8.139-0.395c-4.248,0.652-5.4,2.152-5.4,6.459c0,0.363,0.029,0.728-0.005,1.088
			c-0.158,1.703,0.55,3.01,1.83,4.06c1.839,1.509,3.679,3.017,5.519,4.524C652.289,514.438,652.167,514.51,652.045,514.581z
			 M489.899,101.427c0.31-1.147,1.344-1.655,2.138-2.353c2.849-2.506,5.376-5.268,7.231-8.607
			c3.947-7.106,5.722-14.848,6.521-22.835c0.422-4.232,0.423-8.495-0.291-12.721c-0.116-0.694,0.164-1.134,0.848-1.213
			c1.972-0.227,3.942-0.492,5.922-0.602c8.328-0.461,16.54,0.608,24.624,2.418c6.79,1.521,13.447,3.624,19.653,6.869
			c3.204,1.675,6.281,3.586,8.782,6.29c0.436,0.471,0.555,1.764,1.35,1.268c0.56-0.35-0.566-0.975-0.795-1.577
			c-1.591-4.182-2.737-8.481-3.364-12.902c-0.33-2.328-0.397-2.579-2.797-2.703c-5.195-0.27-10.348-0.977-15.497-1.632
			c-6.819-0.869-13.652-1.592-20.491-2.248c-6.279-0.603-12.581-0.963-18.897-0.759c-0.851,0.028-1.404-0.25-1.971-0.918
			c-1.425-1.679-2.923-3.304-4.482-4.86c-3.991-3.982-8.236-7.647-13.022-10.683c-7.015-4.45-14.408-7.998-22.6-9.604
			c-8.106-1.589-16.3-1.645-24.495-0.832c-3.833,0.38-7.656,0.919-11.459,1.532c-5.587,0.901-11.055,2.268-16.376,4.263
			c-5.208,1.952-10.259,4.184-15.063,7.007c-2.566,1.509-4.954,3.271-7.463,4.858c-3.685,2.331-7.391,4.646-10.407,7.871
			c-4.337,4.637-8.988,8.92-14.015,12.814c-3.166,2.452-6.295,4.974-9.684,7.082c-3.268,2.033-6.913,3.41-10.374,5.108
			c-5.734,2.814-11.795,4.536-18.038,5.579c-4.563,0.763-9.131,1.534-13.75,2.004c-4.183,0.426-8.367,0.801-12.561,1.06
			c-3.142,0.194-6.255-0.266-9.375-0.613c-3.061-0.341-6.097-0.82-9.14-1.271c-2.881-0.427-5.775-0.771-8.669-1.103
			c-0.306-0.035-0.648,0.248-0.975,0.383c0.09,0.169,0.148,0.369,0.276,0.501c1.798,1.863,2.904,4.208,4.361,6.307
			c2.813,4.051,5.631,8.089,8.917,11.782c4.288,4.819,9.022,9.2,13.515,13.818c2.336,2.401,4.994,4.426,7.854,6.214
			c4.255,2.659,8.77,4.803,13.207,7.115c5.731,2.987,11.668,5.433,17.801,7.412c6.003,1.937,12.146,3.341,18.356,4.443
			c-0.851,0.506-1.837,0.664-2.745,1.034c-1.288,0.525-1.47,1.582-1.565,2.622c-0.097,1.055,0.564,1.935,1.517,2.343
			c1.275,0.546,2.573,1.066,3.972,1.286c4.643,0.729,8.909-0.432,13.002-2.513c1.498-0.762,1.904-0.612,2.653,0.877
			c2.434,4.842,4.904,9.666,7.32,14.517c2.025,4.064,4.128,8.088,5.393,12.495c0.921,3.209,1.693,6.485,3.721,9.293
			c1.05,1.454,1.895,3.091,2.62,4.738c3.487,7.918,6.132,16.116,7.951,24.577c0.567,2.637,1.282,5.201,2.702,7.55
			c2.218,3.668,4.079,7.592,7.445,10.421c2.297,1.93,4.857,3.503,7.376,5.126c3.648,2.351,7.11,4.982,10.882,7.152
			c4.659,2.68,9.578,4.845,14.336,7.326c0.865,0.451,1.164,0.97,0.971,1.828c-0.812,3.595,0.228,7.006,1.107,10.401
			c1.464,5.653,4.214,10.635,8.255,14.88c2.939,3.088,6.044,5.937,10.211,7.321c1.319,0.438,2.209,1.906,1.975,3.335
			c-0.198,1.207,0.05,2.235,0.723,3.23c0.434,0.641,0.716,1.383,1.155,2.02c0.792,1.148,0.271,1.869-0.768,2.309
			c-2.54,1.076-4.784,2.633-7.076,4.13c-6.661,4.353-13.376,8.623-20.028,12.989c-3.329,2.186-6.474,4.662-9.875,6.722
			c-2.537,1.536-4.023,3.677-4.829,6.368c-2.046,6.831-4.012,13.686-6.012,20.531c-0.63,2.155-2.003,3.614-3.976,4.708
			c-4.034,2.235-8.346,3.813-12.581,5.576c-1.085,0.451-2.032,1.161-1.972,2.325c0.06,1.163,0.896,2.063,2.08,2.469
			c0.34,0.116,0.704,0.203,1.061,0.22c1.965,0.093,3.932,0.236,5.896,0.218c2.868-0.027,5.625-0.52,7.478-3.028
			c1.818-2.462,3.282-5.128,4.287-8.038c1.5-4.346,3.1-8.657,4.537-13.022c1.147-3.482,2.048-7.046,3.195-10.528
			c0.486-1.477,0.54-3.242,2.001-4.244c6.225-4.268,12.534-8.417,18.69-12.781c5.821-4.127,12.355-7.17,17.813-11.84
			c1.102-0.943,2.245-0.699,2.998,0.56c0.609,1.02,1.108,2.105,1.678,3.15c1.725,3.163,2.155,6.528,1.039,9.917
			c-2.145,6.507-2.924,13.23-3.142,19.997c-0.114,3.541-0.412,6.814-2.372,9.898c-1.963,3.091-3.438,6.494-5.436,9.56
			c-2.115,3.245-4.156,6.548-5.738,10.046c-3.191,7.057-6.132,14.228-9.771,21.077c-2.62,4.932-4.244,10.28-6.502,15.362
			c-0.803,1.806-0.519,2.472,1.247,3.627c0.389,0.254,0.479,0.646,0.646,1.021c1.324,2.952,1.815,6.147,2.544,9.253
			c1.434,6.107,1.48,12.388,1.864,18.622c0.254,4.13,0.126,8.278,0.73,12.392c0.525,3.578,0.899,7.179,1.408,10.759
			c1.023,7.195,0.687,14.587,3.089,21.583c0.345,1.006-0.118,1.424-1.034,1.321c-3.343-0.374-6.613-0.014-9.838,0.865
			c-4.037,1.101-8.072,2.209-12.098,3.35c-0.895,0.253-1.62,0.794-1.549,1.868c0.071,1.083,0.728,1.583,1.775,1.835
			c3.541,0.85,7.17,0.934,10.763,1.25c5.048,0.443,9.828-0.987,14.551-2.575c1-0.337,1.351-1.104,1.258-2.069
			c-0.143-1.493-0.319-2.985-0.545-4.469c-0.872-5.728-2.42-11.338-3.037-17.11c-0.852-7.972-1.727-15.948-1.585-23.981
			c0.055-3.064-0.197-6.109-0.412-9.146c-0.601-8.487-2.373-16.774-4.515-25.004c-0.951-3.652-0.874-7.494,0.772-10.958
			c1.768-3.722,3.711-7.416,6.047-10.798c2.878-4.167,4.902-8.712,6.908-13.288c2.052-4.68,4.079-9.368,6.422-13.911
			c1.326-2.57,2.694-5.119,4.031-7.685c0.2-0.384,0.093-1.078,0.726-1.012c0.546,0.058,0.808,0.622,0.967,1.12
			c0.108,0.338,0.086,0.716,0.139,1.073c0.636,4.297,0.956,8.66,2.255,12.829c1.799,5.771,4.706,10.965,8.221,15.89
			c4.41,6.182,9.55,11.531,15.883,15.77c3.359,2.248,6.866,4.214,10.423,6.102c4.693,2.491,9.438,4.856,14.626,6.237
			c2.098,0.559,4.252,0.82,6.327,1.528c1.858,0.635,3.59,1.55,5.471,2.126c4.214,1.29,8.499,2.194,12.845,2.914
			c6.789,1.126,13.54,2.492,20.419,2.988c1.332,0.096,1.936,0.789,2.296,2.081c1.409,5.042,1.1,10.259,1.704,15.38
			c0.417,3.542,0.369,7.125,0.842,10.67c0.644,4.813,1.623,9.578,2.039,14.428c0.358,4.181,1.064,8.279,2.947,12.122
			c1.017,2.073,1.888,4.246,1.815,6.66c-0.08,2.632,1.585,4.966,4.039,5.954c4.121,1.66,8.247,3.313,12.626,4.158
			c3.04,0.586,6.114,1.06,9.218,1.082c1.992,0.015,3.88-2.115,3.106-3.543c-1.207-2.229-2.662-4.39-5.541-4.738
			c-5.233-0.635-10.466-1.299-15.711-1.828c-1.255-0.126-1.935-0.667-2.563-1.654c-1.695-2.662-2.493-5.669-3.405-8.625
			c-1.342-4.348-2.459-8.753-3.294-13.235c-0.809-4.342-0.565-8.787-1.436-13.112c-0.876-4.348-0.749-8.749-0.845-13.148
			c-0.069-3.197-0.265-6.411-0.827-9.569c-0.398-2.24-0.473-2.243,1.828-2.186c0.207,0.005,0.429-0.032,0.619,0.026
			c3.551,1.103,7.181,0.813,10.793,0.554c3.1-0.223,6.263-0.482,9.027-2.005c4.551-2.507,8.604-5.752,12.402-9.274
			c6.679-6.192,8.128-14.101,7.207-22.74c-0.538-5.062-2.332-9.854-3.147-14.854c-0.471-2.885-1.41-5.632-2.686-8.236
			c-3.181-6.492-6.831-12.741-10.157-19.154c-3.819-7.364-8.537-13.98-14.949-19.216c-5.4-4.409-11.129-8.391-17.557-11.272
			c-5.123-2.298-10.114-4.888-15.243-7.172c-6.789-3.022-13.663-5.856-20.479-8.82c-0.928-0.403-2.102-0.616-2.642-1.532
			c-1.153-1.955-2.159-4-3.191-6.025c-0.435-0.854-0.051-1.33,0.818-1.606c3.537-1.126,7.052-2.319,10.595-3.426
			c4.586-1.434,9.064-3.147,13.441-5.124c4.416-1.995,8.918-3.835,13.193-6.099c5.387-2.851,10.832-5.552,16.445-7.911
			c1.583-0.666,3.168-1.223,5.016-0.345c2.413,1.146,4.987,1.954,7.496,2.897c3.093,1.165,6.222,2.221,9.389,3.178
			c4.648,1.403,9.244,2.992,13.919,4.298c5.483,1.533,11.14,2.304,16.714,3.433c1.047,0.212,2.165,0.307,2.982-0.425
			c2.861-2.561,6.142-4.58,9.031-7.094c1.036-0.901,1.845-1.971,1.926-3.428c0.052-0.928-0.22-1.769-1.242-1.828
			c-1.895-0.111-3.802-0.386-5.683,0.309c-3.913,1.445-7.255,3.718-10.143,6.703c-0.601,0.621-1.17,1.416-2.203,1.229
			c-2.035-0.367-4.081-0.707-6.088-1.199c-3.263-0.8-6.482-1.776-9.748-2.564c-4.021-0.97-8.138-1.607-12.022-3.045
			c-5.169-1.914-10.364-3.813-15.037-6.842c-0.947-0.614-1.933-0.537-2.951-0.046c-2.141,1.031-4.248,2.124-6.37,3.187
			c-5.854,2.93-11.646,6-17.798,8.302c-3.668,1.373-7.298,2.844-10.959,4.233c-2.897,1.098-5.836,2.09-8.723,3.214
			c-4.328,1.686-8.626,3.45-12.939,5.173c-0.889,0.355-1.589,0.211-2.058-0.741c-1.162-2.36-2.383-4.692-3.544-7.053
			c-0.429-0.87-0.233-1.685,0.348-2.47c1.016-1.373,1.896-2.85,2.969-4.174c2.155-2.664,3.624-5.536,3.298-9.086
			c-0.022-0.251,0.061-0.513,0.101-0.769c0.649-4.099,0.512-8.117-0.908-12.082c-0.432-1.207-0.964-2.771,0.372-3.762
			c3.027-2.245,6.081-4.476,9.41-6.264c2.042-1.097,4.272-1.859,5.676-3.901c0.944-1.375,1.021-2.426-0.052-3.651
			c-2.556-2.919-5.107-5.844-7.742-8.692c-2.62-2.832-4.499-5.955-5.213-9.844c-0.718-3.908-1.884-7.725-3.224-11.482
			c-1.214-3.406-2.475-6.816-3.37-10.312c-1.379-5.378-4.022-10.013-7.468-14.282c-2.01-2.489-4.615-4.459-6.163-7.364
			c-0.608-1.143-0.307-1.679,0.604-2.274c6.101-3.986,12.451-7.532,18.93-10.863c3.489-1.793,7.056-3.419,10.58-5.133
			c1.095-0.533,1.67-0.436,2.334,0.472c4.158,5.688,8.476,11.241,13.424,16.284c1.944,1.982,3.907,3.873,6.738,4.459
			c0.9,0.187,1.655,0.502,2.235,1.25c0.311,0.399,0.765,0.854,1.322,0.521c0.915-0.548,1.631-1.38,1.81-2.422
			c0.157-0.921-0.409-1.682-1.211-2.181c-1.621-1.008-3.208-2.085-4.893-2.979c-4.751-2.521-8.591-6.057-11.863-10.281
			c-1.993-2.572-3.339-5.472-4.298-8.533c-0.694-2.213-1.476-2.729-3.534-1.787c-4.455,2.039-8.864,4.165-13.216,6.427
			c-7.28,3.786-14.553,7.586-21.712,11.594c-0.883,0.494-1.245,0.402-1.833-0.431c-3.47-4.911-6.372-10.152-9.168-15.458
			c-1.587-3.009-3.314-5.961-4.153-9.306c-0.575-2.292-1.765-4.241-3.101-6.171c-1.268-1.831-2.045-3.944-2.366-6.185
			c-0.086-0.6-0.103-1.138,0.609-1.4c0.822-0.302,1.626-0.653,2.447-0.961c4.01-1.502,8.022-2.996,12.033-4.497
			c0.529-0.198,1.154-0.333,1.227-1.033c0.081-0.791-0.46-1.188-1.069-1.552C496.062,102.554,493.142,101.477,489.899,101.427z
			 M503.787,511.907c0.099,0.019,0.197,0.037,0.295,0.056c0,4.092,0.036,8.184-0.024,12.273c-0.016,1.033,0.28,1.34,1.3,1.281
			c1.497-0.086,3.004-0.058,4.505-0.008c0.81,0.027,1.196-0.11,1.191-1.072c-0.036-8.394-0.031-16.786-0.005-25.18
			c0.003-0.835-0.28-1.058-1.076-1.046c-2.745,0.039-5.491,0.031-8.237,0.004c-0.715-0.007-1.115,0.116-1.231,0.96
			c-0.182,1.327-0.543,2.63-0.829,3.943c-0.62,2.85-1.242,5.7-1.863,8.55c-1.201-4.047-2.206-8.055-3.14-12.08
			c-0.232-1.001-0.579-1.452-1.725-1.396c-2.326,0.114-4.663,0.097-6.991,0.008c-1.176-0.044-1.563,0.23-1.551,1.499
			c0.069,7.046,0.028,14.092,0.037,21.138c0.002,1.494-0.521,3.502,0.232,4.348c0.865,0.969,2.918,0.154,4.438,0.328
			c1.166,0.134,1.335-0.371,1.312-1.393c-0.067-2.9-0.023-5.803-0.023-8.704c0-1.329,0-2.659,0-3.988
			c1.331,3.445,2.373,6.902,3.387,10.366c1.085,3.706,1.074,3.651,4.957,3.735c1.23,0.027,1.645-0.383,1.921-1.533
			C501.638,519.949,502.736,515.934,503.787,511.907z M381.657,511.87c0-4.142-0.026-8.284,0.02-12.427
			c0.01-0.934-0.216-1.285-1.205-1.238c-1.705,0.079-3.419,0.083-5.124-0.001c-1.061-0.053-1.431,0.23-1.394,1.352
			c0.085,2.586,0.06,5.177,0.006,7.766c-0.015,0.723,0.565,1.849-1.056,1.819c-1.51-0.026-0.961-1.067-0.974-1.746
			c-0.051-2.691-0.041-5.385-0.008-8.076c0.009-0.742-0.1-1.141-0.994-1.11c-1.914,0.063-3.832,0.049-5.747,0.005
			c-0.792-0.018-1.07,0.214-1.067,1.048c0.028,8.388,0.033,16.776-0.004,25.164c-0.004,0.943,0.345,1.11,1.171,1.087
			c1.811-0.052,3.626-0.067,5.436,0.006c0.932,0.037,1.238-0.186,1.218-1.18c-0.066-3.52-0.021-7.041-0.03-10.563
			c-0.002-0.743-0.119-1.385,1.049-1.383c1.189,0.002,1.03,0.677,1.029,1.402c-0.005,3.469,0.026,6.938-0.021,10.406
			c-0.013,0.94,0.131,1.387,1.231,1.322c1.754-0.104,3.522-0.085,5.279-0.006c0.976,0.045,1.218-0.274,1.207-1.221
			C381.628,520.155,381.657,516.013,381.657,511.87z M456.778,510.563c3.743-0.797,4.717-2.972,4.543-6.167
			c-0.2-3.665-0.93-4.913-4.533-5.731c-4.085-0.928-8.256-0.266-12.385-0.432c-0.712-0.029-0.657,0.479-0.656,0.956
			c0.002,8.444,0.015,16.889-0.018,25.333c-0.004,0.9,0.379,1.001,1.111,0.986c1.761-0.035,3.526-0.077,5.282,0.014
			c1.055,0.054,1.408-0.199,1.383-1.326c-0.08-3.521,0.034-7.047-0.061-10.566c-0.038-1.38,0.558-1.257,1.453-0.948
			c0.873,0.301,0.928,1.013,0.902,1.767c-0.048,1.396-0.122,2.792-0.142,4.188c-0.028,1.969,0.026,3.936,0.624,5.839
			c0.19,0.606,0.419,1.148,1.243,1.138c2.256-0.03,4.513-0.011,6.861-0.011c-1.337-2.938-1.332-5.875-1.151-8.807
			C461.465,513.028,460.751,511.863,456.778,510.563z M421.306,511.972c0-2.85,0.004-5.698-0.001-8.548
			c-0.005-2.415-0.989-3.963-3.295-4.679c-3.595-1.114-7.256-1.115-10.843,0.037c-2.272,0.729-3.27,2.307-3.274,4.716
			c-0.01,5.698,0.023,11.396-0.019,17.095c-0.014,1.935,0.761,3.421,2.503,4.085c4.224,1.61,8.505,1.66,12.664-0.265
			c1.571-0.728,2.332-2.066,2.285-3.895C421.252,517.671,421.306,514.82,421.306,511.972z M570.898,511.853
			c0-2.901,0.021-5.803-0.013-8.703c-0.009-0.849,0.131-1.407,1.15-1.396c0.956,0.011,1.067,0.556,1.047,1.326
			c-0.035,1.294,0.039,2.593-0.027,3.884c-0.042,0.838,0.253,1.061,1.059,1.031c1.604-0.06,3.213-0.062,4.816,0
			c0.86,0.032,1.21-0.204,1.163-1.114c-0.067-1.291-0.002-2.589-0.021-3.884c-0.032-2.256-0.93-3.61-3.098-4.287
			c-3.394-1.059-6.851-1.059-10.241-0.021c-2.45,0.751-3.539,2.265-3.552,4.688c-0.032,5.854-0.011,11.707-0.011,17.562
			c0,2.06,1.012,3.435,2.913,4.125c2.85,1.034,5.661,1.047,8.401-0.43c0.305-0.164,0.778-0.775,1.031-0.258
			c0.86,1.76,2.406,0.929,3.679,1.118c0.676,0.101,0.895-0.209,0.891-0.879c-0.022-3.885-0.028-7.771,0.004-11.655
			c0.007-0.764-0.263-0.979-0.989-0.957c-1.501,0.044-3.004,0.014-4.507,0.014c-3.3,0-3.3,0-3.077,3.305
			c0.007,0.104,0.006,0.207,0.003,0.311c-0.013,0.378,0.148,0.596,0.544,0.528c1.033-0.175,1.042,0.459,1.018,1.202
			c-0.035,1.087-0.049,2.178,0.004,3.264c0.041,0.837-0.213,1.264-1.116,1.243c-0.918-0.021-1.09-0.518-1.083-1.313
			C570.916,517.654,570.898,514.753,570.898,511.853z M623.122,525.495c-1.874-8.94-3.728-17.725-5.54-26.519
			c-0.174-0.844-0.699-0.748-1.258-0.749c-2.537-0.004-5.074,0.042-7.609-0.025c-0.865-0.023-1.139,0.306-1.299,1.079
			c-1.75,8.446-3.521,16.889-5.312,25.326c-0.149,0.7-0.007,0.914,0.713,0.9c1.967-0.035,3.935-0.037,5.901,0.001
			c0.73,0.015,0.969-0.273,1.07-0.971c0.254-1.737,0.719-3.451,0.873-5.194c0.129-1.467,1.086-1.074,1.888-1.095
			c0.835-0.021,1.749-0.291,1.893,1.114c0.184,1.794,0.627,3.561,0.889,5.349c0.086,0.586,0.292,0.796,0.87,0.791
			C618.47,525.484,620.739,525.495,623.122,525.495z M541.043,511.9c0-4.19-0.025-8.381,0.021-12.571
			c0.01-0.888-0.247-1.151-1.126-1.123c-1.861,0.063-3.726,0.052-5.587,0.005c-0.81-0.021-1.054,0.248-1.052,1.062
			c0.027,8.381,0.031,16.762-0.004,25.143c-0.004,0.926,0.315,1.124,1.158,1.099c1.809-0.056,3.624-0.079,5.431,0.008
			c0.984,0.048,1.194-0.266,1.182-1.205C541.013,520.178,541.043,516.039,541.043,511.9z"/>
		<path fill-rule="evenodd" clip-rule="evenodd" fill="#020202" d="M489.899,101.427c3.242,0.05,6.162,1.127,8.911,2.77
			c0.609,0.364,1.15,0.762,1.069,1.552c-0.072,0.7-0.697,0.835-1.227,1.033c-4.011,1.501-8.023,2.995-12.033,4.497
			c-0.821,0.308-1.625,0.659-2.447,0.961c-0.712,0.262-0.695,0.801-0.609,1.4c0.321,2.241,1.099,4.354,2.366,6.185
			c1.336,1.931,2.525,3.88,3.101,6.171c0.839,3.344,2.566,6.296,4.153,9.306c2.796,5.305,5.698,10.547,9.168,15.458
			c0.588,0.833,0.95,0.925,1.833,0.431c7.159-4.008,14.432-7.808,21.712-11.594c4.352-2.263,8.761-4.388,13.216-6.427
			c2.059-0.942,2.84-0.426,3.534,1.787c0.959,3.061,2.305,5.96,4.298,8.533c3.272,4.224,7.112,7.759,11.863,10.281
			c1.685,0.894,3.271,1.971,4.893,2.979c0.802,0.499,1.368,1.259,1.211,2.181c-0.179,1.042-0.895,1.874-1.81,2.422
			c-0.558,0.334-1.012-0.121-1.322-0.521c-0.58-0.748-1.335-1.063-2.235-1.25c-2.831-0.586-4.794-2.477-6.738-4.459
			c-4.948-5.043-9.266-10.596-13.424-16.284c-0.664-0.908-1.239-1.005-2.334-0.472c-3.524,1.714-7.091,3.34-10.58,5.133
			c-6.479,3.331-12.829,6.876-18.93,10.863c-0.911,0.595-1.213,1.131-0.604,2.274c1.548,2.905,4.153,4.875,6.163,7.364
			c3.445,4.269,6.089,8.904,7.468,14.282c0.896,3.496,2.156,6.906,3.37,10.312c1.34,3.758,2.506,7.574,3.224,11.482
			c0.714,3.889,2.593,7.012,5.213,9.844c2.635,2.848,5.187,5.772,7.742,8.692c1.072,1.225,0.996,2.277,0.052,3.651
			c-1.403,2.042-3.634,2.804-5.676,3.901c-3.329,1.788-6.383,4.019-9.41,6.264c-1.336,0.991-0.804,2.555-0.372,3.762
			c1.42,3.965,1.558,7.983,0.908,12.082c-0.04,0.256-0.123,0.518-0.101,0.769c0.326,3.55-1.143,6.422-3.298,9.086
			c-1.072,1.325-1.953,2.802-2.969,4.174c-0.581,0.785-0.776,1.6-0.348,2.47c1.161,2.36,2.382,4.692,3.544,7.053
			c0.469,0.952,1.169,1.096,2.058,0.741c4.313-1.723,8.611-3.487,12.939-5.173c2.887-1.125,5.825-2.116,8.723-3.214
			c3.661-1.389,7.291-2.86,10.959-4.233c6.151-2.302,11.943-5.372,17.798-8.302c2.122-1.063,4.229-2.156,6.37-3.187
			c1.019-0.491,2.004-0.568,2.951,0.046c4.673,3.029,9.868,4.928,15.037,6.842c3.885,1.438,8.002,2.076,12.022,3.045
			c3.266,0.788,6.485,1.764,9.748,2.564c2.007,0.492,4.053,0.832,6.088,1.199c1.033,0.187,1.603-0.608,2.203-1.229
			c2.888-2.985,6.229-5.258,10.143-6.703c1.881-0.695,3.788-0.42,5.683-0.309c1.022,0.06,1.294,0.9,1.242,1.828
			c-0.081,1.457-0.89,2.527-1.926,3.428c-2.89,2.515-6.17,4.534-9.031,7.094c-0.817,0.732-1.936,0.637-2.982,0.425
			c-5.574-1.129-11.23-1.9-16.714-3.433c-4.675-1.307-9.271-2.895-13.919-4.298c-3.167-0.957-6.296-2.013-9.389-3.178
			c-2.509-0.944-5.083-1.752-7.496-2.897c-1.848-0.877-3.433-0.321-5.016,0.345c-5.613,2.359-11.059,5.061-16.445,7.911
			c-4.275,2.264-8.777,4.104-13.193,6.099c-4.377,1.976-8.855,3.689-13.441,5.124c-3.543,1.107-7.058,2.3-10.595,3.426
			c-0.869,0.276-1.253,0.752-0.818,1.606c1.032,2.025,2.038,4.07,3.191,6.025c0.54,0.916,1.714,1.129,2.642,1.532
			c6.816,2.964,13.69,5.798,20.479,8.82c5.129,2.284,10.12,4.874,15.243,7.172c6.428,2.882,12.156,6.863,17.557,11.272
			c6.412,5.235,11.13,11.852,14.949,19.216c3.326,6.413,6.977,12.662,10.157,19.154c1.275,2.604,2.215,5.352,2.686,8.236
			c0.815,5,2.609,9.792,3.147,14.854c0.921,8.64-0.528,16.548-7.207,22.74c-3.799,3.522-7.852,6.768-12.402,9.274
			c-2.765,1.522-5.928,1.782-9.027,2.005c-3.612,0.259-7.242,0.549-10.793-0.554c-0.19-0.059-0.412-0.021-0.619-0.026
			c-2.301-0.058-2.227-0.055-1.828,2.186c0.563,3.158,0.758,6.372,0.827,9.569c0.096,4.399-0.031,8.801,0.845,13.148
			c0.87,4.325,0.627,8.771,1.436,13.112c0.835,4.482,1.952,8.888,3.294,13.235c0.912,2.956,1.71,5.963,3.405,8.625
			c0.629,0.987,1.309,1.528,2.563,1.654c5.245,0.529,10.478,1.193,15.711,1.828c2.879,0.349,4.334,2.51,5.541,4.738
			c0.773,1.428-1.114,3.558-3.106,3.543c-3.104-0.022-6.178-0.496-9.218-1.082c-4.379-0.845-8.505-2.498-12.626-4.158
			c-2.454-0.988-4.119-3.322-4.039-5.954c0.072-2.414-0.799-4.587-1.815-6.66c-1.883-3.843-2.589-7.941-2.947-12.122
			c-0.416-4.85-1.396-9.614-2.039-14.428c-0.473-3.545-0.425-7.128-0.842-10.67c-0.604-5.121-0.295-10.338-1.704-15.38
			c-0.36-1.292-0.964-1.985-2.296-2.081c-6.879-0.496-13.63-1.862-20.419-2.988c-4.346-0.72-8.631-1.624-12.845-2.914
			c-1.881-0.576-3.612-1.491-5.471-2.126c-2.075-0.708-4.229-0.97-6.327-1.528c-5.188-1.381-9.933-3.746-14.626-6.237
			c-3.557-1.888-7.063-3.854-10.423-6.102c-6.333-4.238-11.473-9.588-15.883-15.77c-3.515-4.925-6.422-10.118-8.221-15.89
			c-1.299-4.169-1.619-8.532-2.255-12.829c-0.053-0.357-0.031-0.735-0.139-1.073c-0.159-0.498-0.421-1.063-0.967-1.12
			c-0.632-0.066-0.525,0.628-0.726,1.012c-1.336,2.565-2.705,5.114-4.031,7.685c-2.343,4.543-4.371,9.231-6.422,13.911
			c-2.006,4.576-4.03,9.121-6.908,13.288c-2.336,3.382-4.279,7.076-6.047,10.798c-1.646,3.464-1.723,7.306-0.772,10.958
			c2.142,8.229,3.914,16.517,4.515,25.004c0.215,3.036,0.467,6.081,0.412,9.146c-0.142,8.033,0.733,16.01,1.585,23.981
			c0.617,5.772,2.165,11.383,3.037,17.11c0.226,1.483,0.402,2.976,0.545,4.469c0.093,0.966-0.257,1.732-1.258,2.069
			c-4.723,1.588-9.503,3.019-14.551,2.575c-3.593-0.316-7.222-0.4-10.763-1.25c-1.048-0.252-1.705-0.752-1.775-1.835
			c-0.07-1.074,0.654-1.615,1.549-1.868c4.026-1.141,8.061-2.249,12.098-3.35c3.225-0.879,6.495-1.239,9.838-0.865
			c0.916,0.103,1.379-0.315,1.034-1.321c-2.402-6.996-2.066-14.388-3.089-21.583c-0.509-3.58-0.883-7.181-1.408-10.759
			c-0.604-4.113-0.476-8.262-0.73-12.392c-0.384-6.234-0.43-12.515-1.864-18.622c-0.729-3.105-1.22-6.301-2.544-9.253
			c-0.168-0.375-0.258-0.768-0.646-1.021c-1.766-1.155-2.05-1.821-1.247-3.627c2.258-5.082,3.883-10.431,6.502-15.362
			c3.638-6.85,6.579-14.021,9.771-21.077c1.582-3.498,3.623-6.801,5.738-10.046c1.998-3.065,3.473-6.469,5.436-9.56
			c1.959-3.084,2.257-6.357,2.372-9.898c0.218-6.767,0.997-13.49,3.142-19.997c1.117-3.389,0.686-6.754-1.039-9.917
			c-0.569-1.045-1.068-2.131-1.678-3.15c-0.753-1.259-1.896-1.503-2.998-0.56c-5.458,4.67-11.992,7.713-17.813,11.84
			c-6.156,4.364-12.465,8.514-18.69,12.781c-1.461,1.002-1.515,2.768-2.001,4.244c-1.147,3.482-2.048,7.046-3.195,10.528
			c-1.438,4.365-3.037,8.677-4.537,13.022c-1.005,2.91-2.469,5.576-4.287,8.038c-1.853,2.509-4.61,3.001-7.478,3.028
			c-1.964,0.019-3.932-0.125-5.896-0.218c-0.356-0.017-0.721-0.104-1.061-0.22c-1.183-0.405-2.02-1.306-2.08-2.469
			c-0.06-1.164,0.887-1.874,1.972-2.325c4.235-1.763,8.547-3.341,12.581-5.576c1.973-1.094,3.346-2.553,3.976-4.708
			c2-6.846,3.966-13.7,6.012-20.531c0.806-2.691,2.292-4.832,4.829-6.368c3.401-2.06,6.546-4.536,9.875-6.722
			c6.651-4.366,13.367-8.637,20.028-12.989c2.292-1.497,4.536-3.054,7.076-4.13c1.04-0.439,1.56-1.16,0.768-2.309
			c-0.439-0.637-0.722-1.379-1.155-2.02c-0.673-0.995-0.921-2.023-0.723-3.23c0.234-1.429-0.655-2.896-1.975-3.335
			c-4.167-1.384-7.272-4.233-10.211-7.321c-4.041-4.245-6.791-9.227-8.255-14.88c-0.879-3.395-1.918-6.806-1.107-10.401
			c0.193-0.857-0.106-1.377-0.971-1.828c-4.759-2.481-9.678-4.646-14.336-7.326c-3.772-2.17-7.234-4.801-10.882-7.152
			c-2.52-1.623-5.079-3.196-7.376-5.126c-3.366-2.829-5.227-6.753-7.445-10.421c-1.42-2.349-2.135-4.913-2.702-7.55
			c-1.819-8.461-4.464-16.659-7.951-24.577c-0.726-1.647-1.57-3.285-2.62-4.738c-2.028-2.808-2.8-6.083-3.721-9.293
			c-1.265-4.407-3.368-8.431-5.393-12.495c-2.417-4.851-4.887-9.674-7.32-14.517c-0.749-1.49-1.155-1.639-2.653-0.877
			c-4.093,2.081-8.359,3.242-13.002,2.513c-1.399-0.22-2.697-0.739-3.972-1.286c-0.952-0.408-1.614-1.288-1.517-2.343
			c0.095-1.04,0.278-2.096,1.565-2.622c0.908-0.37,1.894-0.528,2.744-1.034c4.709,0.883,9.468,1.359,14.24,1.733
			c1.586,0.125,3.167,0.331,4.75,0.5c0.721,2.772,2.331,5.147,3.452,7.741c0.847,1.961,2.329,3.539,3.281,5.401
			c1.167,2.283,1.856,4.793,2.98,7.126c2.687,5.575,5.191,11.237,8.061,16.724c2.699,5.16,4.625,10.603,5.982,16.25
			c1.399,5.822,2.375,11.751,4.787,17.3c2.733,6.289,6.241,11.844,12.534,15.267c3.989,2.169,7.836,4.624,11.615,7.146
			c5.408,3.611,10.503,7.712,16.611,10.187c0.684,0.277,1.265,0.617,1.739-0.157c0.665-1.083,1.741-1.77,2.508-2.748
			c0.395-0.504,1.227-0.873,0.868-1.651c-0.4-0.867-1.252-0.885-2.143-0.852c-3.425,0.128-6.61-0.679-9.218-2.986
			c-3.15-2.786-5.743-6.079-8.268-9.434c-2.035-2.705-2.817-5.817-3.363-9.048c-1.039-6.148,1.072-11.451,4.196-16.585
			c3.167-5.204,6.228-10.484,9.075-15.868c2.367-4.478,5.033-8.67,8.755-12.139c3.116-2.904,5.903-6.085,8.287-9.627
			c1.65-2.452,1.56-3.861-0.898-5.459c-7.327-4.764-14.085-10.347-21.555-14.904c-2.661-1.624-2.633-1.693-4.842,0.504
			c-5.442,5.412-11.216,10.43-17.506,14.844c-1.973,1.385-4.109,2.181-6.539,1.917c-0.825-0.09-1.817-0.382-1.787-1.369
			c0.028-0.914,0.854-1.35,1.799-1.347c2.746,0.009,5.032-1.234,7.006-2.928c5.146-4.414,10.144-8.995,14.968-13.765
			c1.506-1.49,1.677-4.098,4.079-4.816l-0.029,0.02c0.212-0.104,0.423-0.208,0.635-0.311c1.138,0.153,2.08,0.733,2.735,1.609
			c2.108,2.817,4.751,4.834,7.828,6.614c5.226,3.022,9.567,7.39,14.824,10.43c1.873,1.083,3.664,2.371,5.648,3.182
			c2.304,0.942,4.694,0.245,6.991-0.456c3.014-0.92,6.034-1.828,9.136-2.4c4.703-0.868,9.469-0.859,14.226-0.968
			c0.351-0.008,0.766,0.133,0.996-0.238c0.296-0.478-0.19-0.721-0.376-1.065c-1.103-2.043-2.281-4.049-3.11-6.228
			c-2.073-5.443-4.119-10.896-6.216-16.33c-1.266-3.28-2.473-6.584-3.295-10c-0.491-2.041-1.488-3.482-3.486-4.18
			c0.121-0.782,0.943-0.644,1.386-1.037c2.355-2.091,4.728-4.17,7.211-6.104C487.188,103.777,488.228,102.223,489.899,101.427z
			 M514.843,218.625c-0.019,0.714,0.147,1.27,0.652,1.735c2.103,1.94,3.96,4.072,5.115,6.735c0.261,0.601,0.682,0.99,1.327,0.622
			c0.903-0.514,1.914-0.736,2.829-1.246c3.268-1.817,6.053-4.321,9.195-6.309c0.821-0.52,0.748-1.046,0.145-1.763
			c-2.26-2.69-4.506-5.395-6.667-8.164c-0.875-1.122-1.432-1.004-2.251,0.021c-1.003,1.256-2.223,2.3-3.664,3.067
			c-1.591,0.847-3.171,1.717-4.735,2.611C515.725,216.544,514.818,217.299,514.843,218.625z"/>
		<path fill-rule="evenodd" clip-rule="evenodd" fill="#1AA31D" d="M489.899,101.427c-1.672,0.796-2.711,2.351-4.134,3.458
			c-2.483,1.934-4.856,4.013-7.211,6.104c-0.443,0.393-1.265,0.254-1.384,1.037c-0.74,0.36-1.53,0.645-2.214,1.092
			c-6.125,4.004-12.626,7.298-19.276,10.318c-4.705,2.135-9.674,3.524-14.553,5.17c-3.304,1.115-6.575,2.325-9.861,3.493
			c-0.194,0.128-0.627-0.306-0.633,0.268c0,0,0.029-0.02,0.029-0.02c-0.271-0.354-0.595-0.091-0.829-0.002
			c-2.362,0.891-4.849,1.318-7.283,1.918c-3.326,0.819-6.667,1.671-10.053,2.128c-4.537,0.612-9.08,1.324-13.668,1.427
			c-4.189,0.094-8.385-0.062-12.572,0.07c-4.03,0.127-8.032-0.583-12.06-0.264c-1.583-0.169-3.164-0.375-4.75-0.5
			c-4.772-0.374-9.531-0.851-14.24-1.733c-6.21-1.102-12.353-2.507-18.356-4.443c-6.133-1.979-12.07-4.424-17.801-7.412
			c-4.437-2.312-8.952-4.456-13.207-7.115c-2.86-1.788-5.519-3.813-7.854-6.214c-4.493-4.618-9.228-8.999-13.515-13.818
			c-3.286-3.693-6.104-7.731-8.917-11.782c-1.458-2.099-2.563-4.443-4.361-6.307c-0.128-0.132-0.186-0.333-0.276-0.501
			c0.326-0.135,0.668-0.418,0.975-0.383c2.894,0.333,5.788,0.676,8.669,1.103c3.043,0.451,6.08,0.93,9.14,1.271
			c3.12,0.347,6.233,0.808,9.375,0.613c4.193-0.259,8.377-0.634,12.561-1.06c4.619-0.47,9.187-1.241,13.75-2.004
			c6.243-1.043,12.304-2.765,18.038-5.579c3.461-1.698,7.106-3.075,10.374-5.108c3.389-2.108,6.518-4.63,9.684-7.082
			c5.026-3.894,9.678-8.177,14.015-12.814c3.016-3.225,6.722-5.541,10.407-7.871c2.509-1.587,4.896-3.35,7.463-4.858
			c4.804-2.823,9.854-5.055,15.063-7.007c5.321-1.995,10.789-3.362,16.376-4.263c3.804-0.613,7.626-1.152,11.459-1.532
			c8.194-0.813,16.389-0.757,24.495,0.832c8.191,1.606,15.585,5.154,22.6,9.604c4.786,3.036,9.031,6.701,13.022,10.683
			c1.56,1.556,3.058,3.181,4.482,4.86c0.566,0.668,1.12,0.946,1.971,0.918c6.316-0.205,12.618,0.156,18.897,0.759
			c6.839,0.656,13.672,1.379,20.491,2.248c5.149,0.655,10.302,1.363,15.497,1.632c2.399,0.125,2.467,0.375,2.797,2.703
			c0.627,4.421,1.773,8.721,3.364,12.902c0.229,0.602,1.354,1.227,0.795,1.577c-0.795,0.496-0.914-0.797-1.35-1.268
			c-2.501-2.704-5.578-4.615-8.782-6.29c-6.206-3.245-12.863-5.349-19.653-6.869c-8.084-1.81-16.296-2.879-24.624-2.418
			c-1.979,0.109-3.95,0.375-5.922,0.602c-0.684,0.079-0.964,0.519-0.848,1.213c0.714,4.226,0.713,8.489,0.291,12.721
			c-0.799,7.987-2.573,15.729-6.521,22.835c-1.855,3.339-4.383,6.102-7.231,8.607C491.243,99.772,490.209,100.279,489.899,101.427z
			 M284.422,87.323c2.013,1.147,4.013,2.317,6.041,3.437c6.34,3.498,12.86,6.574,19.931,8.321c4.372,1.081,8.786,1.952,13.209,2.803
			c3.708,0.714,7.421,1.147,11.178,1.271c2.522,0.083,5.049,0.024,7.574,0.041c4.292,0.03,8.564-0.117,12.735-1.284
			c7.112-1.99,14.012-4.543,20.726-7.627c3.853-1.77,7.8-3.443,11.215-5.923c8.425-6.114,16.474-12.745,25.423-18.13
			c5.089-3.063,10.194-6.103,15.67-8.423c9.91-4.201,20.384-6.27,30.973-7.743c5.834-0.813,11.732-1.007,17.629-1.212
			c5.784-0.201,11.563-0.062,17.341-0.19c1.409-0.031,3.262,0.51,2.548-2.093c-0.012-0.04,0.04-0.094,0.05-0.144
			c0.323-1.612-0.225-2.304-1.879-2.276c-5.552,0.094-11.104,0.187-16.654,0.329c-2.099,0.054-4.199,0.19-6.291,0.38
			c-3.267,0.298-6.529,0.65-9.788,1.024c-4.022,0.461-8.078,0.761-12.05,1.503c-6.317,1.18-12.368,3.414-18.542,5.161
			c-6.434,1.822-11.96,5.491-17.667,8.818c-5.059,2.95-9.835,6.291-14.354,9.972c-9.267,7.548-19.453,13.534-30.329,18.408
			c-7.544,3.382-15.356,5.823-23.578,6.92c-6.565,0.876-13.056,0.008-19.531-0.784c-4.112-0.502-8.162-1.504-12.249-2.236
			c-4.349-0.779-8.595-1.865-12.692-3.575c-5.415-2.26-10.596-5.041-16.086-7.126c-0.495-0.692-1.224-0.725-2.062-0.835
			C283.232,86.925,283.886,87.047,284.422,87.323z"/>
		<path fill-rule="evenodd" clip-rule="evenodd" fill="#010101" d="M503.787,511.907c-1.051,4.026-2.149,8.042-3.121,12.089
			c-0.276,1.15-0.69,1.561-1.921,1.533c-3.883-0.084-3.872-0.029-4.957-3.735c-1.014-3.464-2.056-6.921-3.387-10.366
			c0,1.329,0,2.659,0,3.988c0,2.901-0.044,5.804,0.023,8.704c0.023,1.021-0.146,1.526-1.312,1.393
			c-1.521-0.174-3.573,0.641-4.438-0.328c-0.754-0.846-0.23-2.854-0.232-4.348c-0.009-7.046,0.032-14.092-0.037-21.138
			c-0.013-1.269,0.375-1.543,1.551-1.499c2.328,0.089,4.665,0.106,6.991-0.008c1.146-0.056,1.492,0.396,1.725,1.396
			c0.934,4.025,1.938,8.033,3.14,12.08c0.621-2.85,1.243-5.7,1.863-8.55c0.286-1.313,0.647-2.616,0.829-3.943
			c0.116-0.844,0.517-0.967,1.231-0.96c2.746,0.027,5.492,0.035,8.237-0.004c0.796-0.012,1.079,0.211,1.076,1.046
			c-0.026,8.394-0.031,16.786,0.005,25.18c0.005,0.962-0.382,1.1-1.191,1.072c-1.501-0.05-3.008-0.078-4.505,0.008
			c-1.02,0.059-1.315-0.248-1.3-1.281c0.061-4.09,0.024-8.182,0.024-12.273C503.984,511.944,503.886,511.926,503.787,511.907z"/>
		<path fill-rule="evenodd" clip-rule="evenodd" fill="#010101" d="M381.657,511.87c0,4.143-0.029,8.285,0.021,12.427
			c0.011,0.946-0.23,1.266-1.207,1.221c-1.757-0.079-3.524-0.098-5.279,0.006c-1.1,0.064-1.244-0.382-1.231-1.322
			c0.048-3.468,0.016-6.938,0.021-10.406c0.001-0.726,0.16-1.4-1.029-1.402c-1.168-0.002-1.051,0.64-1.049,1.383
			c0.01,3.521-0.036,7.043,0.03,10.563c0.02,0.994-0.287,1.217-1.218,1.18c-1.81-0.073-3.625-0.058-5.436-0.006
			c-0.827,0.023-1.175-0.144-1.171-1.087c0.037-8.388,0.033-16.776,0.004-25.164c-0.003-0.834,0.274-1.065,1.067-1.048
			c1.915,0.044,3.833,0.058,5.747-0.005c0.894-0.03,1.003,0.368,0.994,1.11c-0.033,2.691-0.042,5.385,0.008,8.076
			c0.013,0.679-0.536,1.72,0.974,1.746c1.621,0.029,1.041-1.097,1.056-1.819c0.054-2.589,0.079-5.18-0.006-7.766
			c-0.037-1.121,0.333-1.404,1.394-1.352c1.705,0.084,3.419,0.08,5.124,0.001c0.989-0.047,1.215,0.305,1.205,1.238
			C381.63,503.586,381.657,507.729,381.657,511.87z"/>
		<path fill-rule="evenodd" clip-rule="evenodd" fill="#020202" d="M456.778,510.563c3.973,1.301,4.688,2.466,4.455,6.232
			c-0.181,2.932-0.186,5.869,1.151,8.807c-2.348,0-4.604-0.02-6.861,0.011c-0.824,0.011-1.053-0.531-1.243-1.138
			c-0.598-1.903-0.652-3.87-0.624-5.839c0.02-1.396,0.094-2.792,0.142-4.188c0.026-0.754-0.03-1.466-0.902-1.767
			c-0.895-0.309-1.49-0.432-1.453,0.948c0.095,3.52-0.019,7.046,0.061,10.566c0.025,1.127-0.328,1.38-1.383,1.326
			c-1.756-0.091-3.521-0.049-5.282-0.014c-0.731,0.015-1.115-0.086-1.111-0.986c0.033-8.444,0.02-16.889,0.018-25.333
			c0-0.477-0.056-0.985,0.656-0.956c4.129,0.166,8.3-0.496,12.385,0.432c3.604,0.818,4.333,2.066,4.533,5.731
			C461.495,507.591,460.521,509.766,456.778,510.563z M451.474,505.332c0,0.828-0.051,1.66,0.021,2.482
			c0.036,0.41-0.419,1.143,0.47,1.181c0.747,0.032,1.615-0.124,1.675-1.012c0.116-1.699,0.114-3.416,0.002-5.115
			c-0.059-0.89-0.953-1.033-1.673-1.031c-0.897,0.003-0.434,0.76-0.473,1.169C451.42,503.775,451.474,504.556,451.474,505.332z"/>
		<path fill-rule="evenodd" clip-rule="evenodd" fill="#010101" d="M421.306,511.972c0,2.849-0.054,5.699,0.02,8.547
			c0.047,1.828-0.714,3.167-2.285,3.895c-4.159,1.925-8.439,1.875-12.664,0.265c-1.742-0.664-2.517-2.15-2.503-4.085
			c0.042-5.698,0.008-11.396,0.019-17.095c0.004-2.409,1.001-3.986,3.274-4.716c3.586-1.152,7.248-1.151,10.843-0.037
			c2.307,0.716,3.291,2.264,3.295,4.679C421.311,506.273,421.306,509.122,421.306,511.972z M411.399,511.917
			c0,2.847,0.033,5.695-0.018,8.542c-0.018,0.995,0.325,1.44,1.324,1.422c0.988-0.019,1.156-0.582,1.153-1.432
			c-0.022-5.747-0.026-11.494,0.003-17.24c0.005-0.979-0.309-1.432-1.328-1.42c-1.028,0.012-1.149,0.604-1.144,1.43
			C411.413,506.118,411.399,509.018,411.399,511.917z"/>
		<path fill-rule="evenodd" clip-rule="evenodd" fill="#020202" d="M570.898,511.853c0,2.9,0.018,5.802-0.012,8.703
			c-0.007,0.796,0.165,1.293,1.083,1.313c0.903,0.021,1.157-0.406,1.116-1.243c-0.053-1.086-0.039-2.177-0.004-3.264
			c0.024-0.743,0.016-1.377-1.018-1.202c-0.396,0.067-0.557-0.15-0.544-0.528c0.003-0.104,0.004-0.207-0.003-0.311
			c-0.223-3.305-0.223-3.305,3.077-3.305c1.503,0,3.006,0.03,4.507-0.014c0.727-0.021,0.996,0.193,0.989,0.957
			c-0.032,3.885-0.026,7.771-0.004,11.655c0.004,0.67-0.215,0.979-0.891,0.879c-1.272-0.189-2.818,0.642-3.679-1.118
			c-0.253-0.518-0.727,0.094-1.031,0.258c-2.74,1.477-5.552,1.464-8.401,0.43c-1.901-0.69-2.913-2.065-2.913-4.125
			c0-5.854-0.021-11.708,0.011-17.562c0.013-2.423,1.102-3.937,3.552-4.688c3.391-1.038,6.848-1.038,10.241,0.021
			c2.168,0.677,3.065,2.031,3.098,4.287c0.019,1.295-0.047,2.593,0.021,3.884c0.047,0.91-0.303,1.146-1.163,1.114
			c-1.604-0.062-3.213-0.06-4.816,0c-0.806,0.029-1.101-0.193-1.059-1.031c0.066-1.291-0.008-2.59,0.027-3.884
			c0.021-0.771-0.091-1.315-1.047-1.326c-1.02-0.012-1.159,0.547-1.15,1.396C570.919,506.05,570.898,508.951,570.898,511.853z"/>
		<path fill-rule="evenodd" clip-rule="evenodd" fill="#020202" d="M623.122,525.495c-2.383,0-4.652-0.011-6.921,0.008
			c-0.578,0.005-0.784-0.205-0.87-0.791c-0.262-1.788-0.705-3.555-0.889-5.349c-0.144-1.405-1.058-1.136-1.893-1.114
			c-0.802,0.021-1.759-0.372-1.888,1.095c-0.154,1.743-0.619,3.457-0.873,5.194c-0.102,0.697-0.34,0.985-1.07,0.971
			c-1.967-0.038-3.935-0.036-5.901-0.001c-0.72,0.014-0.862-0.2-0.713-0.9c1.791-8.438,3.562-16.88,5.312-25.326
			c0.16-0.773,0.434-1.103,1.299-1.079c2.535,0.067,5.072,0.021,7.609,0.025c0.559,0.001,1.084-0.095,1.258,0.749
			C619.395,507.771,621.248,516.555,623.122,525.495z M612.432,507.12c-0.3,2.396-0.539,4.422-0.815,6.444
			c-0.091,0.667,0.229,0.846,0.777,0.738c0.409-0.08,1.232,0.371,1.095-0.559C613.176,511.637,613.103,509.486,612.432,507.12z"/>
		<path fill-rule="evenodd" clip-rule="evenodd" fill="#020202" d="M652.411,514.367c-1.84-1.508-3.68-3.016-5.519-4.524
			c-1.28-1.05-1.988-2.356-1.83-4.06c0.034-0.36,0.005-0.725,0.005-1.088c0-4.307,1.152-5.807,5.4-6.459
			c2.706-0.415,5.47-0.527,8.139,0.395c2.277,0.785,3.157,1.961,3.253,4.354c0.048,1.189-0.02,2.384,0.021,3.573
			c0.023,0.701-0.153,1.041-0.941,1.021c-1.708-0.047-3.419-0.049-5.127,0.001c-0.756,0.021-0.995-0.229-0.959-0.973
			c0.056-1.137-0.009-2.278,0.022-3.418c0.022-0.839-0.163-1.446-1.167-1.419c-0.923,0.025-1.272,0.606-1.308,1.418
			c-0.085,1.972,0.498,3.645,2.132,4.901c1.927,1.481,3.8,3.034,5.704,4.546c1.615,1.283,2.416,2.916,2.263,5.003
			c-0.049,0.67-0.007,1.347-0.008,2.02c-0.006,3.215-1.141,4.786-4.245,5.573c-3.213,0.814-6.465,0.843-9.661-0.102
			c-2.586-0.765-3.512-2.104-3.517-4.772c-0.003-1.554,0.039-3.109-0.017-4.661c-0.029-0.831,0.149-1.198,1.09-1.16
			c1.966,0.08,3.936,0.038,5.903,0.046c0.009,2.006,0.036,4.012,0.016,6.017c-0.008,0.829,0.462,1.07,1.153,1.107
			c0.694,0.038,1.352,0,1.584-0.854C655.487,518.304,654.676,516.088,652.411,514.367z"/>
		<path fill-rule="evenodd" clip-rule="evenodd" fill="#030303" d="M541.043,511.9c0,4.139-0.03,8.277,0.022,12.416
			c0.013,0.939-0.197,1.253-1.182,1.205c-1.807-0.087-3.622-0.063-5.431-0.008c-0.843,0.025-1.162-0.173-1.158-1.099
			c0.035-8.381,0.031-16.762,0.004-25.143c-0.002-0.813,0.242-1.082,1.052-1.062c1.861,0.047,3.726,0.058,5.587-0.005
			c0.879-0.028,1.136,0.235,1.126,1.123C541.018,503.52,541.043,507.71,541.043,511.9z"/>
		<path fill-rule="evenodd" clip-rule="evenodd" fill="#FCFCFC" d="M374.196,137.624c4.028-0.319,8.03,0.391,12.06,0.264
			c4.187-0.132,8.383,0.023,12.572-0.07c4.589-0.103,9.132-0.815,13.668-1.427c3.386-0.457,6.727-1.309,10.053-2.128
			c2.435-0.6,4.921-1.027,7.283-1.918c0.234-0.088,0.558-0.352,0.829,0.002c-2.402,0.718-2.574,3.327-4.08,4.816
			c-4.824,4.77-9.822,9.352-14.968,13.765c-1.974,1.693-4.26,2.937-7.006,2.928c-0.945-0.003-1.771,0.433-1.799,1.347
			c-0.03,0.986,0.962,1.279,1.787,1.369c2.429,0.264,4.566-0.532,6.539-1.917c6.29-4.414,12.063-9.433,17.506-14.844
			c2.209-2.197,2.182-2.127,4.842-0.504c7.47,4.558,14.228,10.14,21.555,14.904c2.458,1.598,2.548,3.007,0.898,5.459
			c-2.384,3.542-5.171,6.723-8.287,9.627c-3.722,3.469-6.388,7.662-8.755,12.139c-2.847,5.384-5.908,10.664-9.075,15.868
			c-3.124,5.134-5.234,10.437-4.196,16.585c0.545,3.231,1.328,6.344,3.363,9.048c2.524,3.354,5.117,6.648,8.268,9.434
			c2.608,2.307,5.793,3.114,9.218,2.986c0.891-0.033,1.743-0.015,2.143,0.852c0.359,0.778-0.474,1.147-0.868,1.651
			c-0.767,0.978-1.843,1.665-2.508,2.748c-0.475,0.774-1.056,0.435-1.739,0.157c-6.108-2.475-11.203-6.576-16.611-10.187
			c-3.779-2.523-7.626-4.977-11.615-7.146c-6.293-3.422-9.801-8.978-12.534-15.267c-2.412-5.548-3.387-11.478-4.787-17.3
			c-1.356-5.646-3.283-11.09-5.982-16.25c-2.869-5.486-5.374-11.149-8.061-16.724c-1.124-2.333-1.813-4.843-2.98-7.126
			c-0.952-1.862-2.435-3.44-3.281-5.401C376.527,142.771,374.917,140.396,374.196,137.624z"/>
		<path fill-rule="evenodd" clip-rule="evenodd" fill="#FCFCFC" d="M431.265,132.098c3.286-1.167,6.558-2.378,9.861-3.493
			c4.879-1.646,9.849-3.035,14.553-5.17c6.65-3.02,13.152-6.313,19.276-10.318c0.684-0.447,1.474-0.732,2.214-1.092
			c1.996,0.697,2.993,2.139,3.484,4.18c0.822,3.416,2.029,6.72,3.295,10c2.097,5.434,4.143,10.887,6.216,16.33
			c0.829,2.178,2.008,4.185,3.11,6.228c0.186,0.344,0.672,0.587,0.376,1.065c-0.23,0.371-0.646,0.229-0.996,0.238
			c-4.757,0.109-9.523,0.101-14.226,0.968c-3.103,0.572-6.122,1.48-9.136,2.4c-2.297,0.701-4.687,1.398-6.991,0.456
			c-1.984-0.811-3.775-2.099-5.648-3.182c-5.256-3.04-9.598-7.408-14.824-10.43c-3.076-1.78-5.72-3.797-7.828-6.614
			c-0.656-0.876-1.598-1.457-2.735-1.607C431.267,132.059,431.265,132.098,431.265,132.098z"/>
		<path fill-rule="evenodd" clip-rule="evenodd" fill="#F9F9F9" d="M514.843,218.625c-0.024-1.326,0.882-2.081,1.946-2.689
			c1.564-0.894,3.145-1.765,4.735-2.611c1.441-0.767,2.661-1.811,3.664-3.067c0.819-1.026,1.376-1.143,2.251-0.021
			c2.161,2.77,4.407,5.474,6.667,8.164c0.604,0.717,0.677,1.244-0.145,1.763c-3.143,1.988-5.928,4.491-9.195,6.309
			c-0.915,0.509-1.926,0.732-2.829,1.246c-0.646,0.368-1.066-0.021-1.327-0.622c-1.155-2.663-3.013-4.795-5.115-6.735
			C514.99,219.895,514.824,219.339,514.843,218.625z"/>
		<path fill-rule="evenodd" clip-rule="evenodd" fill="#FCFCFC" d="M431.265,132.098c0,0,0.001-0.039,0.001-0.041
			c-0.211,0.102-0.423,0.205-0.635,0.309C430.638,131.792,431.071,132.226,431.265,132.098z"/>
		<path fill-rule="evenodd" clip-rule="evenodd" fill="#F3F8F4" d="M284.977,86.944c5.49,2.085,10.671,4.866,16.086,7.126
			c4.097,1.71,8.343,2.796,12.692,3.575c4.086,0.732,8.136,1.733,12.249,2.236c6.476,0.792,12.966,1.66,19.531,0.784
			c8.222-1.098,16.033-3.539,23.578-6.92c10.876-4.874,21.062-10.86,30.329-18.408c4.52-3.681,9.295-7.022,14.354-9.972
			c5.706-3.327,11.233-6.997,17.667-8.818c6.174-1.748,12.225-3.981,18.542-5.161c3.972-0.742,8.027-1.042,12.05-1.503
			c3.259-0.374,6.521-0.726,9.788-1.024c2.091-0.19,4.191-0.327,6.291-0.38c5.551-0.142,11.103-0.235,16.654-0.329
			c1.654-0.028,2.202,0.665,1.879,2.276c-0.01,0.05-0.062,0.104-0.05,0.144c0.714,2.604-1.139,2.062-2.548,2.093
			c-5.778,0.128-11.557-0.011-17.341,0.19c-5.897,0.205-11.795,0.399-17.629,1.212c-10.589,1.474-21.063,3.542-30.973,7.743
			c-5.476,2.321-10.581,5.361-15.67,8.423c-8.949,5.385-16.998,12.016-25.423,18.13c-3.416,2.479-7.363,4.153-11.215,5.923
			c-6.713,3.084-13.614,5.638-20.726,7.627c-4.17,1.167-8.443,1.314-12.735,1.284c-2.525-0.017-5.052,0.042-7.574-0.041
			c-3.756-0.124-7.47-0.557-11.178-1.271c-4.423-0.852-8.837-1.723-13.209-2.803c-7.071-1.747-13.591-4.823-19.931-8.321
			c-2.028-1.12-4.028-2.29-6.041-3.437C284.521,87.07,284.72,86.965,284.977,86.944z"/>
		<path fill-rule="evenodd" clip-rule="evenodd" fill="#E8E8E8" d="M284.977,86.944c-0.257,0.021-0.456,0.126-0.555,0.378
			c-0.537-0.276-1.19-0.398-1.507-1.213C283.753,86.22,284.482,86.252,284.977,86.944z"/>
		<path fill-rule="evenodd" clip-rule="evenodd" fill="#FCFCFC" d="M451.474,505.332c0-0.776-0.053-1.557,0.021-2.326
			c0.04-0.409-0.424-1.166,0.473-1.169c0.721-0.002,1.614,0.142,1.673,1.031c0.112,1.699,0.114,3.416-0.002,5.115
			c-0.061,0.888-0.928,1.044-1.675,1.012c-0.889-0.038-0.434-0.771-0.47-1.181C451.423,506.992,451.474,506.16,451.474,505.332z"/>
		<path fill-rule="evenodd" clip-rule="evenodd" fill="#F5F5F5" d="M411.399,511.917c0-2.899,0.013-5.799-0.009-8.698
			c-0.006-0.825,0.115-1.418,1.144-1.43c1.019-0.012,1.333,0.44,1.328,1.42c-0.03,5.746-0.025,11.493-0.003,17.24
			c0.003,0.85-0.165,1.413-1.153,1.432c-1,0.019-1.342-0.427-1.324-1.422C411.432,517.612,411.399,514.764,411.399,511.917z"/>
		<path fill-rule="evenodd" clip-rule="evenodd" fill="#E8E8E8" d="M612.432,507.12c0.671,2.366,0.744,4.517,1.057,6.624
			c0.138,0.93-0.686,0.479-1.095,0.559c-0.548,0.107-0.868-0.071-0.777-0.738C611.893,511.542,612.132,509.516,612.432,507.12z"/>
		<path fill-rule="evenodd" clip-rule="evenodd" fill="#FEFEFE" d="M652.411,514.367c2.265,1.721,3.076,3.937,2.387,6.483
			c-0.232,0.854-0.89,0.893-1.584,0.854c-0.691-0.037-1.161-0.278-1.153-1.107c0.021-2.005-0.007-4.011-0.016-6.017
			C652.167,514.51,652.289,514.438,652.411,514.367z"/>
	</g>
</g>
</svg>
